<svg width="100" height="52" viewBox="0 0 100 52" fill="none" xmlns="http://www.w3.org/2000/svg">
<g clip-path="url(#clip0_0_204)">
<path d="M6.3125 -0.0625H82.375L83.625 0.0625L84.625 0.375L85.625 0.875L86.3125 1.375L87.0625 2.0625L87.625 2.8125L88 3.4375L88.375 4.375L88.5625 5.25L88.625 5.75V11.3125H92.5625L96.3125 11.375L97.125 11.5625L98.125 12.0625L98.6875 12.5L99.0625 12.8125L99.625 13.5625L100.125 14.5625L100.312 15.375L100.375 16.375V35.5625L100.25 36.9375L99.9375 37.8125L99.4375 38.6875L98.875 39.3125L98.375 39.75L97.75 40.125L96.6875 40.5L95.75 40.625H88.625V46.125L88.4375 47.3125L88.1875 48.0625L87.75 48.9375L87.125 49.8125L86.375 50.5625L85.75 51L84.8125 51.5L83.8125 51.8125L83.25 51.9375L82.375 52H6.1875L5.125 51.875L4.0625 51.5625L3 51L2.4375 50.5625L1.8125 50L1.125 49.125L0.625 48.1875L0.3125 47.25L0.1875 46.6875L0.125 46.125L0.0625 40.0625V11.6875L0.125 5.75L0.3125 4.6875L0.625 3.75L1.1875 2.75L1.6875 2.125L2.0625 1.6875L2.5625 1.25L3.4375 0.6875L4.25 0.3125L5.125 0.0625L6.3125 -0.0625ZM6.0625 4.5L5.5 4.75L5 5.1875L4.75 5.625L4.6875 5.875L4.625 11.25V45.125L4.6875 46.125L4.875 46.625L5.25 47.0625L5.9375 47.4375L6.3125 47.5H82.375L83 47.375L83.5625 47L83.9375 46.5L84.0625 46.125L84.125 45.6875V6.125L83.9375 5.5L83.625 5L83.1875 4.6875L82.6875 4.5H6.0625ZM88.625 15.875V36.125H95.6875L95.8125 35.75V16L95.75 15.875H88.625Z" fill="#E3EDA5"/>
<path d="M14 8.3125H20.5L21.375 8.5L22.125 8.8125L22.8125 9.25L23.5 9.8125L24.1875 10.6875L24.6875 11.6875L24.9375 12.625L25 13.5625V38.125L24.9375 39.3125L24.6875 40.25L24.1875 41.25L23.75 41.875L23.125 42.5L22.25 43.0625L21.375 43.4375L20.5 43.625L19.75 43.6875H14.5L13.6875 43.5625L12.875 43.3125L11.9375 42.8125L11.125 42.125L10.5 41.375L10 40.4375L9.6875 39.25L9.625 38.5625V13.5625L9.6875 12.6875L9.9375 11.75L10.25 11L10.8125 10.1875L11.375 9.5625L12.25 8.9375L13.0625 8.5625L14 8.3125ZM14.5625 12.8125L14.3125 12.9375L14.1875 13.1875L14.125 15.25V37.25L14.1875 38.8125L14.5 39.125L14.6875 39.1875H19.875L20.25 39L20.4375 38.625V13.375L20.25 13L20 12.8125H14.5625Z" fill="#E3EDA5"/>
</g>
<defs>
<clipPath id="clip0_0_204">
<rect width="100" height="52" fill="white"/>
</clipPath>
</defs>
</svg>
