<svg width="85" height="85" viewBox="0 0 85 85" fill="none" xmlns="http://www.w3.org/2000/svg">
<g clip-path="url(#clip0_0_212)">
<path d="M32.6221 0H36.7725V0.0415039L38.6816 0.373535L40.1758 0.74707L41.5454 1.20361L42.5415 1.61865L43.2886 1.95068L44.2017 2.44873L45.3223 3.11279L46.1523 3.69385L46.8164 4.19189L47.356 4.64844L47.8125 5.02197L48.186 5.39551L48.5181 5.68604L48.9746 6.14258L49.2651 6.47461L49.6802 6.93115L50.1367 7.51221L50.4688 7.92725L51.0083 8.67432L51.4648 9.37988L52.0044 10.293L52.5439 11.3306L52.876 11.2891L54.0796 10.9985L55.5322 10.791L55.9888 10.7495H58.147L59.6411 10.9155L60.8447 11.1646L62.0068 11.4966L63.1274 11.9116L64.2065 12.4097L65.2026 12.9492L66.4478 13.7793L67.0288 14.2358L67.5684 14.6924L67.9834 15.0659L68.2324 15.2734L68.5229 15.6055L68.9795 16.062L69.353 16.5186L69.7681 17.0166L70.3491 17.8467L70.8472 18.6353L71.3867 19.6313L71.8433 20.6274L72.2583 21.7896L72.5488 22.7856L72.7979 23.9478L72.9639 25.2759L73.0469 26.853L74.375 27.1851L75.3711 27.5171L76.3672 27.9321L77.0728 28.2642L77.9443 28.7622L78.6914 29.2603L79.397 29.7998L79.812 30.1318L80.3516 30.6299L80.7666 31.0034V31.0864H80.8496L81.1401 31.4185L81.5137 31.8335L81.9702 32.4146L82.5098 33.1616L83.0908 34.1162L83.5474 34.9878L84.0039 36.0669L84.4189 37.312L84.7095 38.5986L84.8755 39.7192L84.917 40.0928L85 40.1343V42.334L84.917 42.3755L84.751 43.6621L84.502 44.8657L84.2114 45.8618L83.8379 46.8579L83.3398 47.937L82.9248 48.6841L82.4268 49.4727L81.8457 50.2612L81.3892 50.8008L80.9326 51.2988L80.6006 51.6724L80.2686 51.9629L79.729 52.4609L79.1895 52.876L78.6084 53.291L77.9858 53.7061L77.0312 54.2456L76.1597 54.6606L75.0806 55.0757L73.96 55.4077L73.0054 55.6152L71.8433 55.7812L70.6396 55.8643H18.4692L17.3901 55.8228L16.1035 55.6982L14.6924 55.4492L13.4058 55.1172L12.0361 54.6606L10.957 54.2041L10.2515 53.8721L9.33838 53.374L8.34229 52.7515L7.63672 52.2534L7.01416 51.7554L6.55762 51.3818L6.14258 51.0083L5.81055 50.7178L4.98047 49.8877V49.8047H4.89746L4.52393 49.3481L4.15039 48.9331L3.77686 48.4351L3.2373 47.688L2.78076 46.9824L2.28271 46.1108L1.78467 45.1562L1.41113 44.2847L1.0376 43.2886L0.74707 42.3755L0.456543 41.2134L0.290527 40.3418L0.124512 39.0967L0.0415039 38.3081H0V36.3574L0.0415039 36.3159L0.20752 34.7803L0.415039 33.5352L0.664062 32.4561L1.12061 31.0034L1.57715 29.8413L2.19971 28.5547L2.78076 27.5586L3.07129 27.1021L3.40332 26.604L3.90137 25.9399L4.44092 25.2759L4.81445 24.8193L5.10498 24.5288L5.22949 24.3628H5.3125L5.39551 24.1968H5.47852L5.56152 24.0308L5.72754 23.8647H5.81055V23.7817L6.14258 23.4912L6.55762 23.1177L7.01416 22.7441L7.88574 22.0801L8.84033 21.4575L9.62891 21.001L10.5835 20.5029L11.2891 20.1709L12.4512 19.7144L13.6548 19.3408L14.4849 19.1333H14.6094L14.6924 18.0957L14.8169 17.0581L14.9829 16.062L15.2734 14.8169L15.6055 13.6548L16.0205 12.5342L16.394 11.6626L16.8091 10.791L17.3071 9.87793L17.9297 8.88184L18.4692 8.13477L18.8428 7.63672L19.3823 6.97266L19.8804 6.3916L21.167 5.10498L21.499 4.81445L21.9556 4.44092L22.5366 3.98438L23.2837 3.44482L23.9062 3.02979L24.5288 2.65625L25.4834 2.1167L26.6455 1.57715L27.8076 1.12061L28.8037 0.788574L30.0488 0.456543L31.5845 0.166016L32.6221 0ZM33.8672 5.3125L32.8296 5.39551L31.7505 5.56152L30.7129 5.81055L29.6338 6.14258L29.0112 6.3916L28.2642 6.72363L27.3096 7.22168L26.3135 7.84424L25.8154 8.21777L25.1514 8.75732L24.8193 9.04785L24.6533 9.17236V9.25537L24.4873 9.33838L23.9062 9.91943L23.6157 10.2515L23.1592 10.791L22.7856 11.2891L22.3291 11.9531L21.8726 12.7002L21.2915 13.8208L20.9595 14.6094L20.5029 15.979L20.2539 17.0166L20.0879 18.0127L20.0049 18.9673V21.8311L19.8389 22.4121L19.5483 22.9517L19.1748 23.3667L18.8843 23.6157L18.3862 23.8647L17.6807 24.0308L16.228 24.2383L15.1489 24.4873L14.3188 24.7363L13.4888 25.0684L12.4512 25.5664L11.7871 25.9399L11.04 26.438L10.542 26.8115L10.0024 27.2681L9.5874 27.6416L8.79883 28.4302L8.42529 28.8867L8.01025 29.3848L7.4292 30.2563L6.97266 31.0449L6.64062 31.6675L6.18408 32.7881L5.85205 33.8257L5.64453 34.6973L5.47852 35.7349L5.39551 36.8555V37.6855L5.47852 38.8062L5.68604 40.0513L5.93506 41.0474L6.3501 42.251L6.84814 43.3301L7.3877 44.2847L7.84424 44.9487L8.21777 45.4468L8.67432 45.9863L9.13086 46.4844L9.71191 47.0654L10.1685 47.439L10.5005 47.7295L11.2476 48.269L12.3267 48.9331L13.2812 49.3896L14.1943 49.7632L15.1489 50.0537L16.062 50.2612L17.0996 50.4272L17.9297 50.5103L19.1748 50.5518H67.6514L70.5981 50.5103L71.5942 50.4272L72.2998 50.3027L73.3374 50.0122L74.1675 49.6802L75.0391 49.2236L75.6201 48.8501L76.1597 48.4351L76.7407 47.937L77.1558 47.522L77.5293 47.0654L77.8613 46.6504L78.2764 46.0278L78.8159 44.9902L79.0649 44.3677L79.3555 43.3301L79.5215 42.4585L79.563 41.7944V40.7153L79.48 39.8438L79.2725 38.8477L78.8989 37.7271L78.4009 36.6895L77.9858 36.0254L77.4878 35.3613L76.9482 34.7388L76.3672 34.1992L75.7031 33.7012L74.8315 33.1616L73.7939 32.6636L72.7979 32.3315L72.1338 32.1655L71.3037 32.041L69.8096 31.958L69.2285 31.8335L68.5645 31.5015L68.2324 31.2109H68.1494L68.0664 31.0449L67.8174 30.7129L67.5684 30.2148L67.4438 29.7583V28.9697L67.6099 27.8491L67.6514 27.3926V25.9814L67.5684 25.1514L67.3608 24.0723L67.0288 22.9932L66.5723 21.9556L66.2402 21.333L65.7837 20.6274L65.3687 20.0879L64.9951 19.6313L64.1235 18.7598L63.667 18.3862L63.0444 17.9297L62.1729 17.3901L61.2598 16.9336L60.2637 16.5601L59.3506 16.311L58.4375 16.145L57.5659 16.062H56.5698L55.6567 16.145L54.7437 16.311L53.7061 16.6016L52.793 16.9751L51.9629 17.3486L51.3403 17.5146H50.7593L50.0952 17.3486L49.5142 17.0581L49.0161 16.6016L48.6426 16.0205L48.0615 14.4434L47.605 13.4473L47.1069 12.4927L46.3599 11.3721L46.0693 10.9985L45.6128 10.4175L45.0317 9.79492L44.2432 9.00635L43.0811 8.09326L42.2095 7.51221L41.1304 6.88965L40.0513 6.3916L38.8892 5.97656L37.8516 5.68604L36.7725 5.47852L35.6519 5.354L34.9463 5.3125H33.8672Z" fill="#E3EDA5"/>
<path d="M40.8813 69.0625H41.4624L41.9189 69.1455L42.417 69.353L42.9565 69.7266L43.3301 70.1416L43.6621 70.7227L43.8281 71.3037V72.2168L43.6206 72.8394L43.0396 74.043L38.3081 83.5059L38.0176 83.9624L37.6855 84.3359L37.2705 84.6265L36.7725 84.8755L36.4404 85H35.2783L34.5312 84.668L34.0747 84.3359L33.7012 83.9209L33.3691 83.3398L33.2031 82.7588V81.9702L33.3691 81.3477L33.7427 80.5591L34.1577 79.7705L34.6143 78.8159L34.9878 78.1104L35.4443 77.1558L38.4326 71.1792L38.8477 70.3906L39.1382 69.9756L39.4702 69.6436L39.9268 69.353L40.4248 69.1455L40.8813 69.0625Z" fill="#E3EDA5"/>
<path d="M56.6113 59.8071H57.5659L58.1055 59.9731L58.562 60.2222L59.0186 60.5957L59.3921 61.0938L59.5996 61.5503L59.7656 62.2144V62.7124L59.6826 63.1689L59.4751 63.667L59.0186 64.6216L58.645 65.3271L58.1885 66.2817L57.8149 66.9873L57.3584 67.9419L55.5322 71.5942L55.1587 72.2998L54.7021 73.2544L54.3701 73.9185L53.9966 74.5825L53.623 74.9976L53.291 75.2881L52.71 75.5786L52.2534 75.7031L51.5894 75.7446L50.9253 75.6201L50.2612 75.2881L49.7632 74.8315L49.3896 74.292L49.1821 73.7939L49.0991 73.4204V72.7563L49.2236 72.2168L49.5142 71.5527L49.8877 70.8472L50.3442 69.8926L50.7178 69.187L51.1743 68.2324L51.5479 67.5269L52.0044 66.5723L52.3779 65.8667L52.8345 64.9121L53.208 64.2065L53.6646 63.252L54.0381 62.5464L54.4946 61.5918L54.8682 60.9277L55.2417 60.5127L55.5737 60.2222L56.1548 59.9316L56.6113 59.8071Z" fill="#E3EDA5"/>
<path d="M32.7466 59.8071H33.7012L34.2407 59.9731L34.6558 60.1807L35.0708 60.5127L35.3613 60.8447L35.6934 61.4258L35.8594 61.9238L35.9009 62.2144V62.6294L35.8179 63.1689L35.5273 63.8745L30.3394 74.2505L30.0073 74.7485L29.7583 75.0391L29.2188 75.4126L28.7207 75.6201L28.0566 75.7446H27.6831L27.0605 75.6201L26.3965 75.2881L25.8984 74.8315L25.5249 74.292L25.3174 73.7939L25.2344 73.4204V72.7563L25.4004 72.0923L25.8154 71.2207L26.2305 70.4321L26.8945 69.104L27.2266 68.3984L27.6001 67.6929L27.9736 66.9043L28.3472 66.1987L28.8037 65.2441L29.1772 64.5386L29.5508 63.75L29.9243 63.0444L30.2979 62.2559L30.7129 61.4673L31.0034 60.9277L31.2939 60.5542L31.709 60.2222L32.29 59.9316L32.7466 59.8071Z" fill="#E3EDA5"/>
<path d="M64.7461 69.0625H65.3271L65.9082 69.187L66.4893 69.4775L66.9458 69.8511L67.2778 70.2661L67.5684 70.8472L67.6929 71.3037V72.1753L67.5269 72.7148L67.2363 73.3789L66.8628 74.0845L66.4893 74.873L66.1157 75.5786L65.7422 76.3672L65.3687 77.0728L64.9951 77.8613L64.6216 78.5669L64.248 79.3555L63.8745 80.061L63.501 80.8496L63.1274 81.5552L62.7539 82.3438L62.3389 83.1323L62.0898 83.6304L61.8408 84.0039L61.3428 84.502L60.7617 84.834L60.3052 85H59.1846L58.645 84.7925L58.1885 84.5435L57.6904 84.0869L57.3999 83.6719L57.1509 83.1323L57.0679 82.8003L57.0264 82.2607L57.1509 81.5967L57.4414 80.8911L62.6294 70.5151L62.8784 70.1416L63.252 69.7266L63.6255 69.436L64.165 69.187L64.7461 69.0625Z" fill="#E3EDA5"/>
<path d="M80.4761 59.8071H81.4722L81.9702 59.9731L82.4268 60.2222L82.8418 60.5542L83.1738 60.9692L83.4644 61.5503L83.6304 62.2144V62.7124L83.4644 63.3765L83.1738 64.0405L82.7588 64.8291L82.3438 65.7007L81.9287 66.4893L81.5137 67.3608L81.0986 68.1494L80.6836 69.021L80.2686 69.8096L79.8535 70.6812L79.4385 71.4697L78.1104 74.126L77.8198 74.624L77.4463 75.0391L77.1558 75.2881L76.5747 75.5786L76.0767 75.7031L75.4541 75.7446L74.79 75.6201L74.126 75.2881L73.7109 74.9146L73.4204 74.5825L73.0884 73.9185L72.9639 73.4619V72.6733L73.1714 72.0093L73.6694 70.9717L78.6084 61.0938L79.0234 60.5542L79.48 60.1807L80.1025 59.8901L80.4761 59.8071Z" fill="#E3EDA5"/>
<path d="M8.88184 59.8071H9.87793L10.293 59.9316L10.791 60.1807L11.2061 60.5127L11.5381 60.8862L11.7871 61.3013L11.9946 61.9238L12.0361 62.1313V62.7539L11.8701 63.418L11.3721 64.4556L10.5005 66.1987L10.127 66.9873L9.71191 67.7759L6.43311 74.3335L6.01807 74.9146L5.56152 75.2881L4.98047 75.5786L4.52393 75.7031L3.90137 75.7446L3.36182 75.6616L2.90527 75.4956L2.44873 75.2051L2.03369 74.8315L1.74316 74.4165L1.49414 73.877L1.36963 73.3789V72.7979L1.53564 72.1338L2.03369 71.0962L7.01416 61.1353L7.34619 60.6787L7.67822 60.3467L8.21777 60.0146L8.88184 59.8071Z" fill="#E3EDA5"/>
<path d="M17.0166 69.0625H17.5977L18.0542 69.1455L18.4692 69.3115L18.8843 69.5605L19.3408 69.9756L19.6313 70.3906L19.8389 70.8057L20.0049 71.5527L19.9634 72.2168L19.7559 72.8809L14.4434 83.5059L14.1528 83.9624L13.7793 84.3774L13.1982 84.751L12.5757 85H11.3721V84.917L10.9985 84.834L10.459 84.5435L10.0024 84.1284L9.71191 83.7134L9.46289 83.2153L9.33838 82.7588V81.9702L9.50439 81.3892L9.96094 80.4346L14.9829 70.3906L15.3149 69.9341L15.6055 69.6436L16.145 69.3115L16.7261 69.104L17.0166 69.0625Z" fill="#E3EDA5"/>
</g>
<defs>
<clipPath id="clip0_0_212">
<rect width="85" height="85" fill="white"/>
</clipPath>
</defs>
</svg>
