 <svg width="92" height="84" viewBox="0 0 92 84" fill="none" xmlns="http://www.w3.org/2000/svg">
<path d="M62.3516 6.72241H63.6094L65.0469 6.8198L66.5742 7.01458L67.877 7.25806L69.6738 7.74501L71.291 8.32936L72.5938 8.9137L73.7168 9.49805L74.6602 10.0337L75.6934 10.7154L76.5469 11.3485L77.2656 11.9328L77.8945 12.4685L78.5234 13.0528L79.0625 13.5885L79.7812 14.3189L80.1855 14.7571L80.5 15.1467L81.084 15.8771L81.668 16.705L82.207 17.4841L82.7012 18.3119L83.2402 19.2858L83.6895 20.1623L84.1836 21.2336L84.7227 22.6458L85.1719 24.0093L85.5312 25.3727L85.8457 26.931L86.0703 28.5379L86.2051 30.291V32.6283L86.0703 34.3327L85.8457 35.9883L85.5312 37.5466L85.127 39.0074L84.7227 40.2735L84.2285 41.5396L83.5996 42.9517L82.9258 44.2178L82.4316 45.0456L81.8926 45.8735L81.623 46.263L81.1289 46.9448L80.5898 47.6265L80.4551 47.8213H80.3652L80.2754 48.0161L79.9609 48.4056L78.8379 49.623H78.748L78.6582 49.8178L78.3887 50.0613L76.1426 52.496L75.7832 52.8369L73.582 55.223H73.4922V55.3204H73.4023V55.4178H73.3125V55.5151H73.2227V55.6125H73.1328V55.7099L72.7734 56.0508L70.8418 58.1447L70.4824 58.4856L67.877 61.3099H67.7871L67.6973 61.5047L67.4277 61.7482L65.002 64.3777L64.6426 64.7186L62.6211 66.9099H62.5312L62.4414 67.1046H62.3516V67.202H62.2617V67.2994H62.1719V67.3968L61.8125 67.7377L59.8809 69.8316L59.5664 70.1238L56.7363 73.1916H56.6465L56.5566 73.3863H56.4668L56.377 73.5811L56.0176 73.922L53.8613 76.2594L53.502 76.6002L51.6602 78.5967H51.5703L51.4805 78.7915H51.3906V78.8889H51.3008V78.9863H51.2109V79.0837H51.1211V79.1811L50.7617 79.522L49.3242 81.0802L48.8301 81.4211L48.5156 81.5185H48.0215L47.6172 81.3724L47.3477 81.1776L46.9883 80.7393L46.8535 80.3985L46.7188 79.3759L46.0449 72.9481L46 72.4611V71.7307L46.1797 70.7568L46.5391 69.8803L47.2578 68.6629L48.875 65.8873L50.1328 63.7447L51.2109 61.8942L51.8398 60.8229L52.2441 60.1412L52.3789 59.8003L52.4238 59.5569V59.1673L52.2441 58.6316L51.8398 58.0473L51.2109 57.2195L50.8066 56.6838L50.2227 55.9047L49.7285 55.223L49.1895 54.5412L48.7402 53.9082L48.3359 53.2265L48.1113 52.6908L47.9316 52.0091L47.8418 51.1326L47.9316 50.2074L48.1113 49.5256L48.4707 48.6491L48.8301 47.9187L50.2227 44.8996L50.6719 43.9744L51.1211 42.9517L51.166 42.757V42.1726L50.9863 41.6857L50.582 41.0039L49.998 40.0787L49.1445 38.7153L48.6504 37.9361L47.6621 36.3292L47.3027 35.7935L46.8535 34.9657L46.584 34.1379L46.4941 33.6022V32.5309L46.6289 31.8005L46.8984 31.0214L47.3027 30.291L47.7969 29.5118L48.8301 27.8562L49.5039 26.7849L49.8633 26.2005L50.7168 24.8371L51.0762 24.2527L51.3008 23.7658L51.3457 23.571V23.1327L51.0312 21.9154L50.043 18.4093L49.0996 15.0006L48.6953 13.5885L48.5605 13.0041V12.6632L48.6953 12.1763L48.9648 11.7867L49.3691 11.3972L50.3125 10.7154L51.2559 10.0824L52.4238 9.40066L53.7715 8.71892L55.0293 8.18327L56.2871 7.74501L58.084 7.25806L59.6113 6.96589L61.3633 6.77111L62.3516 6.72241ZM61.5879 9.9363L60.2402 10.0824L58.8926 10.3259L57.6797 10.618L56.377 11.0563L55.4785 11.3972L54.4453 11.8841L53.3223 12.4685L52.3789 13.0528L51.75 13.4911L51.9297 14.2702L52.7832 17.2893L53.6367 20.3571L54.041 21.7693L54.2207 22.5971L54.2656 22.9867V23.7171L54.1758 24.3988L53.9512 25.1293L53.5918 25.8597L53.2324 26.444L52.3789 27.8075L51.6602 28.9762L50.8965 30.1936L49.8633 31.8492L49.5488 32.3849L49.4141 32.7744V33.3101L49.5938 33.797L49.998 34.4788L50.4922 35.2579L51.2559 36.4753L51.8398 37.4005L52.6934 38.7639L53.1875 39.5431L53.5918 40.2735L53.9062 41.0526L54.0859 41.9778V42.9031L53.9961 43.5361L53.8164 44.1691L53.1875 45.5813L52.334 47.4317L51.8848 48.3569L50.8516 50.5969L50.8066 50.7917V51.4247L50.9414 51.8143L51.5254 52.5934L52.0195 53.2752L52.5137 53.9082L52.873 54.3952L53.2773 54.9308L53.8613 55.7099L54.3555 56.3917L54.6699 56.8786L54.9395 57.3656L55.1641 57.9986L55.2988 58.6316L55.3438 59.0699V59.6056L55.2539 60.3847L54.9844 61.2612L54.6699 61.8942L54.1309 62.8194L53.8164 63.3551L53.2773 64.2803L50.7617 68.5655L50.2227 69.4907L49.5938 70.562L49.0547 71.4872L48.9648 71.7307L48.9199 72.169L49.0996 74.0681L49.3242 76.2107L49.3691 76.4541L49.5938 76.3568V76.2594L49.7734 76.162L52.5586 73.1429L52.8281 72.8994V72.802H52.918V72.7046H53.0078V72.6072H53.0977V72.5098L53.2773 72.4124L55.4785 70.0264L55.6133 69.929V69.8316L55.793 69.7342V69.6368L55.9727 69.5394L58.3086 67.0072L58.3984 66.9586V66.8612L58.5781 66.7638L60.5996 64.5725L60.7793 64.4264V64.329L60.959 64.2316L63.3398 61.6508L63.6094 61.4073V61.3099H63.6992V61.2125H63.7891V61.1151L63.9688 61.0177L66.4395 58.3395L66.5742 58.2421V58.1447L66.7539 58.0473L69.2695 55.3204L69.3594 55.2717V55.1743L69.5391 55.0769L71.5605 52.8856L71.7402 52.7395V52.6421L71.9199 52.5447L74.3008 49.9639L74.5703 49.7204L78.209 45.7761L78.5234 45.3865L79.1523 44.5587L79.7363 43.6822L80.3652 42.6596L80.9043 41.637L81.3984 40.6144L81.9375 39.2509L82.4766 37.4979L82.791 36.2318L83.0156 34.9657L83.1953 33.4075L83.2402 32.677V30.1936L83.1055 28.684L82.8809 27.1745L82.5215 25.6162L81.9824 23.8632L81.5332 22.6945L81.1289 21.7693L80.5898 20.698L80.0508 19.7728L79.5566 18.9936L79.0176 18.2145L78.5234 17.5815L78.1191 17.0945L77.5801 16.4615L76.9512 15.7797L76.5918 15.4389L75.9629 14.8545L75.1992 14.2215L74.4355 13.6372L73.582 13.0528L72.7734 12.5659L71.9199 12.0789L70.7969 11.5433L69.4492 11.0076L68.3711 10.6667L67.293 10.3746L65.9902 10.1311L64.8223 9.985L64.1934 9.9363H61.5879Z" fill="#E3EDA5"/>
<path d="M28.2109 6.67371H29.4688L30.9512 6.7711L32.4785 6.96588L33.916 7.25805L35.3535 7.64761L36.9707 8.23196L38.2285 8.76761L39.7109 9.54673L40.7891 10.1798L41.7773 10.8615L42.6758 11.5432L43.2598 12.0302L43.9785 12.6632L44.3379 13.0528L44.6074 13.6371L45.7754 17.8249L46.6289 20.8441L46.9883 22.2075L47.0781 22.6458L47.123 23.3762L47.0781 24.0579L46.8535 24.9832L46.4941 25.7623L45.2363 27.8075L44.7422 28.5866L43.7539 30.1936L43.125 31.1675L42.6758 31.8979L42.3613 32.4335L42.2266 33.0179L42.3164 33.5535L42.6309 34.1379L43.5742 35.6474L44.0684 36.4266L44.832 37.6439L45.6855 39.0074L46.3145 40.03L46.7188 40.9552L46.8984 41.7831L46.9434 42.1726V42.7083L46.8535 43.5361L46.6289 44.2665L46.0898 45.4839L45.5508 46.6526L45.1016 47.5778L44.3379 49.2334L43.8887 50.1587L43.6641 50.743L43.6191 51.2299L43.7539 51.7169L44.0684 52.2526L44.6523 52.983L45.1465 53.6647L45.6406 54.2978L46.1348 54.9795L46.6289 55.6125L47.123 56.2943L47.5723 56.976L47.8867 57.6577L48.1113 58.4369L48.1562 58.7777V60.0438L47.9766 60.8716L47.6172 61.7481L46.9434 62.8681L46.6738 63.3551L46.1797 64.1829L45.6406 65.1081L45.2363 65.7899L44.7871 66.569L44.248 67.4942L43.7539 68.322L43.3047 69.1011L42.9004 69.7829L42.3613 70.7081L41.9121 71.4872L41.7773 71.8768V72.3637L42.1367 75.8698L42.1816 76.2107V77.0872L42.002 77.5741L41.5977 78.0611L41.1035 78.3046L40.9238 78.3533H40.4746L40.0254 78.1585L39.666 77.8663L38.5879 76.6976L38.3184 76.4541L38.0938 76.2107V76.1133L37.9141 76.0159L35.3086 73.1916L35.1289 73.0455V72.9481L34.9492 72.8507L32.748 70.4646L32.3887 70.1237L30.5469 68.1272L30.457 68.0785V67.9811H30.3672V67.8838L30.1875 67.7864L27.8066 65.2055L27.4473 64.8646L24.707 61.8942L24.5273 61.7481V61.6508L24.3477 61.5534L22.1465 59.1673L21.7871 58.8264L19.7656 56.6351L19.4062 56.2943L17.2051 53.9082L16.8457 53.5673L14.1055 50.5969L13.9258 50.4508V50.3534L13.7461 50.256L11.8145 48.1621L11.5 47.7726L11.0059 47.1882L10.5117 46.5065L10.0625 45.8735L9.52344 45.0456L9.0293 44.2178L8.35547 42.9517L7.72656 41.5883L7.14258 40.0787L6.60352 38.3257L6.28906 37.0109L5.97461 35.2579L5.79492 33.7483L5.70508 32.3848V30.3396L5.79492 28.9275L5.97461 27.4666L6.28906 25.7136L6.69336 24.1066L7.1875 22.5971L7.63672 21.4284L8.31055 19.9188L8.84961 18.8962L9.47852 17.8249L10.0176 16.9971L10.6016 16.1693L11.0957 15.5363L11.5 15.0006L11.9043 14.5624L11.9492 14.465H12.0391L12.1289 14.2702L12.8477 13.4911L13.207 13.1502L13.6562 12.7119L14.1504 12.2737L14.959 11.5919L15.8574 10.9102L16.8457 10.2285L17.8789 9.59543L19.0469 8.96239L20.4395 8.32935L22.0117 7.745L23.584 7.30675L24.707 7.06327L25.875 6.86849L27.3125 6.7224L28.2109 6.67371ZM27.9414 9.8389L26.3242 9.98499L24.8867 10.2285L23.6738 10.5206L22.3262 10.9589L21.1133 11.4459L19.6309 12.1763L18.5527 12.8093L17.4746 13.5398L16.9805 13.9293L16.2617 14.5137L15.6777 15.0493L15.2285 15.4876L14.8691 15.8284L13.7461 17.0458L13.4316 17.4354L12.8027 18.2632L12.1738 19.1884L11.7246 19.9188L11.3203 20.6493L10.8711 21.5258L10.2422 22.938L9.74805 24.3014L9.34375 25.7136L9.07422 26.8823L8.84961 28.197L8.71484 29.4631L8.625 30.9727V31.9953L8.71484 33.4075L8.84961 34.6248L9.07422 35.9396L9.38867 37.3031L9.92773 39.0561L10.5117 40.517L11.0508 41.6857L11.5 42.5135L12.2188 43.6822L12.7578 44.4613L13.1172 44.9482L13.6562 45.63L14.0605 46.1169L16.6211 48.8926H16.7109L16.8008 49.0874L17.1602 49.4282L19.4961 51.9604H19.5859V52.0578L19.9453 52.3986L22.0117 54.6386H22.1016L22.1914 54.8334L22.5508 55.1743L24.8867 57.7064H24.9766L25.0664 57.9012H25.1562V57.9986L25.5156 58.3395L27.4023 60.3847H27.4922L27.582 60.5795L27.9414 60.9203L30.2773 63.4525H30.3672V63.5499L30.7266 63.8907L32.9727 66.3255H33.0625L33.1523 66.5203L33.5117 66.8612L35.8477 69.3933H35.9375L36.0273 69.5881H36.1172V69.6855L36.4766 70.0264L38.0039 71.682L38.3633 72.0229L38.543 72.2663H38.6328L38.7227 72.4611H38.8125L38.9023 71.3411L39.082 70.6107L39.3516 69.9777L39.8457 69.1011L40.4297 68.1272L41.6875 65.9846L42.3613 64.816L42.6758 64.2803L43.1699 63.4525L43.6191 62.6734L44.248 61.6021L44.7871 60.6768L45.1465 60.0438L45.2812 59.6542V59.0699L45.1016 58.5829L44.6523 57.9499L44.2031 57.3656L43.8438 56.8786L43.2598 56.0995L42.6309 55.2717L42.1367 54.5899L41.6875 54.0056L41.2383 53.2752L40.9238 52.496L40.7441 51.6195V50.5969L40.8789 49.8665L41.1934 48.9413L41.7324 47.8213L42.541 46.0682L42.9902 45.143L43.9336 43.0978L44.0234 42.757V42.1239L43.8438 41.637L43.125 40.4683L42.2715 39.1048L41.7773 38.3257L40.9238 36.9622L40.0254 35.5014L39.7109 34.917L39.4863 34.2353L39.3516 33.4561V32.6283L39.5312 31.6544L39.8457 30.8753L40.2051 30.2423L40.5645 29.6579L41.6875 27.8562L42.0918 27.2231L42.8105 26.0545L43.3047 25.2753L44.0234 24.1066L44.2031 23.6197V23.0353L43.7988 21.5258L43.0801 18.9936L42.3164 16.2667L41.957 14.9519L41.7773 14.7084L40.9238 14.0267L39.7109 13.1502L38.8574 12.6145L37.8242 12.0302L36.7461 11.4945L35.3984 10.9589L34.1855 10.5693L32.8379 10.2285L31.4004 9.98499L29.6934 9.8389H27.9414Z" fill="#E3EDA5"/>
<path d="M12.7578 32.6283H13.3418L13.791 32.8231L14.1504 33.1639L14.375 33.5048L14.5547 34.2352L14.7793 35.4039L15.0938 36.6213L15.543 37.9361L16.1719 39.3483L16.6211 40.2248L17.1152 41.0526L17.2949 41.5395V42.1726L17.1152 42.6595L16.8008 43.0491L16.5762 43.2439L16.127 43.4387H15.543L15.0938 43.2439L14.7344 42.903L14.375 42.3674L13.8809 41.4908L13.3418 40.4196L12.9375 39.4943L12.4883 38.277L12.1289 37.1083L11.7695 35.55L11.5898 34.5274V33.8944L11.7246 33.4561L11.9043 33.1639H11.9941L12.0391 33.0179L12.4434 32.7257L12.7578 32.6283Z" fill="#E3EDA5"/>
<path d="M13.5664 23.4248H14.1953L14.6445 23.6196L15.0488 24.0091L15.3184 24.5935L15.3633 25.0318L15.2285 25.7135L14.8691 26.9796L14.5996 28.2456L14.375 29.9013L14.1504 30.4856L13.9258 30.7778L13.4766 31.07L13.1621 31.1674H12.623L12.1738 30.9726L11.8145 30.6317L11.6348 30.3882L11.4551 29.8526V29.2682L11.6348 27.9048L11.9043 26.5413L12.2188 25.3239L12.4883 24.4474L12.7129 24.0091L13.0273 23.6683L13.5664 23.4248Z" fill="#E3EDA5"/>
<path d="M15.9922 19.1396L16.4414 19.1883L16.8008 19.3344L17.2051 19.6753L17.4746 20.1623L17.5645 20.4544V21.0388L17.3398 21.6231L17.1152 21.9153L16.666 22.2075L16.3516 22.3048H15.8125L15.3184 22.1101L15.0039 21.8179L14.7344 21.3309L14.6445 21.0388V20.4057L14.8242 19.9188L15.1836 19.4805L15.7227 19.1883L15.9922 19.1396Z" fill="#E3EDA5"/>
</svg>
