<svg width="30" height="28" viewBox="0 0 30 28" fill="none" xmlns="http://www.w3.org/2000/svg">
<g clip-path="url(#clip0_0_344)">
<path d="M7.31641 -0.449951H22.7109L22.7656 -0.422565L23.3672 -0.326712L23.832 -0.217166L24.2012 -0.10762L24.5293 0.0156189L24.8301 0.138858L25.0625 0.248404L25.2812 0.35795L25.6094 0.549655L25.9375 0.755054L26.1152 0.891986L26.375 1.08369L26.5664 1.24801L26.7441 1.41233L26.9082 1.56295L27.0996 1.75466L27.1953 1.86421L27.3594 2.04222L27.5371 2.275L27.7422 2.54887L27.9062 2.79535L28.1523 3.20614L28.2617 3.42524L28.4531 3.82234L28.6582 4.37007L28.7539 4.69871L28.8633 5.13689L28.9727 5.80786H29V21.3086H28.9727L28.877 21.9248L28.7812 22.3493L28.6582 22.7738L28.4805 23.253L28.2617 23.7186L28.1523 23.9377L27.9746 24.239L27.8652 24.417L27.7422 24.595L27.5234 24.8825L27.3867 25.0606L27.2227 25.2386L27.127 25.3481L27.0859 25.4029H27.0586L27.0312 25.4577L26.8398 25.6494H26.8125V25.6767L26.7031 25.7726L26.5664 25.8958L26.457 25.9917L26.0195 26.3203L25.7734 26.4846L25.3906 26.7174L25.1582 26.8407L24.8438 26.9913L24.584 27.1008L24.1328 27.2652L23.627 27.4021L23.2441 27.4843L22.7383 27.5664L22.5469 27.5938H7.31641L7.27539 27.5664L6.5918 27.4569L6.09961 27.3336L5.74414 27.2241L5.30664 27.0598L4.8418 26.8407L4.55469 26.69L4.26758 26.512L4.03516 26.3614L3.74805 26.1423L3.58398 26.0191L3.39258 25.8548L3.1875 25.6631L3.02344 25.5124L2.83203 25.307L2.69531 25.1564V25.129H2.66797L2.55859 24.9921L2.36719 24.7456L2.18945 24.4991L1.98438 24.1705L1.83398 23.9103L1.72461 23.7049L1.54688 23.3215L1.39648 22.9244L1.25977 22.5136L1.13672 22.007L1.05469 21.514L1.02734 21.3771H1.01367L1 21.2949V5.90371L1.02734 5.80786L1.12305 5.20536L1.20508 4.84933L1.31445 4.45223L1.47852 3.98666L1.60156 3.6991L1.72461 3.43893L1.86133 3.17876L2.06641 2.83643L2.2168 2.60364L2.50391 2.22023L2.64062 2.04222L2.72266 1.94637H2.75L2.77734 1.89159L2.99609 1.65881L3.07812 1.56295H3.10547V1.53557L3.21484 1.43972L3.37891 1.28909L3.51562 1.16585L3.69336 1.02892L3.91211 0.8646L4.14453 0.700281L4.45898 0.508575L4.66406 0.385336L5.10156 0.166245L5.38867 0.0430054L5.88086 -0.135007L6.16797 -0.217166L6.61914 -0.326712L7.125 -0.408871L7.30273 -0.436258L7.31641 -0.449951ZM10.3926 1.8779L7.80859 1.89159L7.45312 1.91898L7.09766 1.97375L6.75586 2.05591L6.48242 2.13807L6.09961 2.2887L5.88086 2.39824L5.63477 2.53517L5.41602 2.67211L5.15625 2.86381L5.00586 2.98705L4.86914 3.11029L4.69141 3.27461L4.5 3.48001V3.50739H4.47266L4.32227 3.6991L4.1582 3.91819L4.02148 4.13728L3.89844 4.34268L3.73438 4.67132L3.625 4.94518L3.51562 5.28752L3.43359 5.61615L3.37891 5.95848L3.35156 6.20496L3.33789 6.50621V20.6376L3.36523 21.0895L3.41992 21.4592L3.51562 21.87L3.65234 22.2671L3.77539 22.5547L3.92578 22.8559L4.10352 23.1435L4.26758 23.3763L4.41797 23.568L4.58203 23.746L4.70508 23.8829L4.80078 23.9788L4.91016 24.0746L5.10156 24.239L5.36133 24.4307L5.68945 24.6361L6.05859 24.8278L6.31836 24.9373L6.67383 25.0606L7.08398 25.1564L7.52148 25.2249L7.9043 25.2523L9.05273 25.2659H20.0586L22.041 25.2523L22.4785 25.2249L22.916 25.1564L23.2168 25.0879L23.4766 25.0058L23.8457 24.8688L24.2148 24.6908L24.5977 24.458L24.8164 24.2937L25.0078 24.1431L25.2129 23.9514L25.3223 23.8555L25.4727 23.6912L25.6367 23.4995L25.7598 23.3352L25.8965 23.1435L26.0605 22.8696L26.2109 22.5821L26.3203 22.3356L26.457 21.9522L26.5801 21.4592L26.6348 21.0758L26.6484 20.8567V6.31451L26.6211 5.97218L26.5527 5.56138L26.4434 5.15058L26.3203 4.80825L26.1699 4.47961L26.0332 4.21944L25.8555 3.93188L25.6777 3.6991L25.541 3.52109L25.3223 3.2883L25.1445 3.11029L25.0352 3.01444L24.8301 2.85012L24.584 2.67211L24.2422 2.46671L23.832 2.26131L23.4629 2.12438L23.1758 2.04222L22.8887 1.97375L22.5195 1.91898L22.123 1.89159L19.0469 1.8779H10.3926Z" fill="white"/>
<path d="M14.959 6.54736L15.3828 6.56106L15.8613 6.60214L16.3945 6.6843L16.9414 6.82123L17.2012 6.90339L17.584 7.04032L17.9258 7.19095L18.3496 7.39634L18.623 7.56066L18.9102 7.73867L19.1699 7.93038L19.4023 8.10839L19.5801 8.25902L19.7715 8.43703L19.8809 8.53288L20.0859 8.73828L20.1816 8.84783L20.3594 9.03953L20.5098 9.23124L20.6738 9.45033L20.8652 9.72419L21.1523 10.2035L21.2617 10.4225L21.4531 10.8197L21.6309 11.2989L21.7266 11.5865L21.8633 12.1342L21.959 12.7367L21.9863 13.0106L22 13.2844V13.8459L21.9727 14.2977L21.877 14.9413L21.7812 15.3521L21.6719 15.7355L21.4805 16.2559L21.3301 16.5845L21.125 16.9953L20.9883 17.2144L20.8379 17.4609L20.7285 17.6115L20.5371 17.8717L20.4004 18.0497L20.0996 18.3783L19.9355 18.5563L19.7305 18.748L19.5801 18.885L19.4707 18.9808L19.1836 19.1999L18.9375 19.3779L18.6777 19.5422L18.377 19.7203L18.0898 19.8709L17.7344 20.0352L17.2559 20.2132L17.0098 20.2954L16.4629 20.4323L15.9844 20.5145L15.6699 20.5555L15.2051 20.5829H14.7676L14.2754 20.5555L13.6465 20.4597L13.2363 20.3638L12.8535 20.2543L12.3613 20.0763L12.1152 19.9667L11.6367 19.734L11.3633 19.5696L11.0625 19.3779L10.8027 19.1862L10.5156 18.9671L10.2969 18.7617L10.1328 18.6111L10.0371 18.5289V18.5016L9.99609 18.4879L9.90039 18.3783L9.69531 18.1592L9.54492 17.9812L9.33984 17.7074L9.18945 17.502L8.98438 17.1733L8.83398 16.9131L8.72461 16.6941L8.54688 16.3243L8.39648 15.9272L8.25977 15.5164L8.13672 15.0098L8.05469 14.5168L8.01367 14.1608L7.98633 13.6131L8 13.1886L8.02734 12.8189L8.0957 12.3533L8.16406 12.011L8.30078 11.4906L8.4375 11.0935L8.56055 10.7923L8.7793 10.3267L8.92969 10.0528L9.09375 9.79266L9.23047 9.57357L9.58594 9.108L9.70898 8.97107L9.8457 8.82044L9.94141 8.71089L10.0645 8.57396L10.1738 8.47811L10.3652 8.3001L10.4746 8.20425L10.6934 8.02623L10.9395 7.84822L11.0898 7.73867L11.3496 7.57436L11.6504 7.39634L11.8691 7.2868L12.1016 7.17725L12.3066 7.0814L12.6348 6.95816L13.0039 6.83492L13.6055 6.6843L14.1387 6.60214L14.3848 6.57475L14.959 6.54736ZM14.7812 8.9026L14.4531 8.92999L14.0293 8.99845L13.7012 9.08061L13.373 9.19016L13.0449 9.32709L12.7441 9.47772L12.3887 9.69681L12.1562 9.87482L12.0332 9.97067L11.8828 10.1076L11.7734 10.2035L11.5684 10.4089L11.4727 10.5184L11.2949 10.7375L11.1855 10.8881L11.0488 11.0935L10.8711 11.3948L10.6934 11.7782L10.5703 12.1068L10.4609 12.5039L10.3926 12.8599L10.3516 13.216L10.3379 13.4761V13.6815L10.3652 14.065L10.4336 14.5168L10.5293 14.9002L10.6387 15.2289L10.7754 15.5438L10.8848 15.7629L10.9805 15.9409L11.1445 16.2011L11.3086 16.4202L11.418 16.5571L11.541 16.6941L11.6367 16.8036L11.8418 17.009L11.9512 17.1048L12.1152 17.2418L12.3613 17.4198L12.6211 17.5841L12.8398 17.7074L13.209 17.8854L13.6738 18.0497L14.084 18.1455L14.5215 18.214L14.9727 18.2414L15.3145 18.2277L15.6836 18.1866L16.0527 18.1181L16.4082 18.0223L16.8457 17.858L17.2148 17.68L17.5977 17.4472L17.8574 17.2555L18.0078 17.1322L18.1719 16.9816L18.2812 16.8858L18.4043 16.7625L18.5 16.653V16.6256H18.5273L18.6504 16.475L18.8145 16.2559L18.9512 16.0505L19.1152 15.7629L19.2656 15.4617L19.416 15.0646L19.5117 14.7359L19.5801 14.4484L19.6348 14.065L19.6484 13.8869V13.2981L19.6211 12.9969L19.5527 12.5724L19.4434 12.1616L19.3203 11.8193L19.1973 11.5454L19.0605 11.2715L18.8555 10.9429L18.6641 10.6827L18.541 10.5321L18.3496 10.3267L18.1035 10.0802L17.9531 9.95698L17.707 9.76527L17.4746 9.61465L17.1465 9.42294L16.832 9.27232L16.4629 9.13539L16.1758 9.05323L15.8887 8.98476L15.5332 8.92999L15.1914 8.9026H14.7812Z" fill="white"/>
<path d="M22.4238 4.21948H22.7383L22.998 4.26056L23.2852 4.35641L23.5586 4.50704L23.75 4.65767L23.9141 4.82198L24.0508 5L24.1328 5.13693L24.2422 5.38341L24.3105 5.64358L24.3379 5.83528V6.12284L24.2969 6.36932L24.2285 6.60211L24.1191 6.83489L24.0234 6.98552L23.8457 7.20461L23.709 7.32785L23.5586 7.43739L23.3672 7.54694L23.1758 7.6291L22.9434 7.69756L22.6016 7.73864L22.2871 7.71126L22.0684 7.65649L21.877 7.58802L21.6445 7.46478L21.4805 7.34154L21.3164 7.19092L21.1934 7.05398L21.0566 6.84858L20.9473 6.62949L20.8652 6.35563L20.8242 6.06807V5.90375L20.8652 5.58881L20.9336 5.35602L21.043 5.12324L21.1387 4.97261L21.2891 4.78091L21.4258 4.64397L21.6035 4.50704L21.8496 4.37011L22.0684 4.28795L22.2188 4.24687L22.4238 4.21948Z" fill="white"/>
</g>
<defs>
<clipPath id="clip0_0_344">
<rect width="30" height="28" fill="white"/>
</clipPath>
</defs>
</svg>
