<svg width="29" height="32" viewBox="0 0 29 32" fill="none" xmlns="http://www.w3.org/2000/svg">
<path d="M24.6264 5.1117C21.9184 2.2662 18.3119 0.701172 14.4793 0.701172C6.5684 0.701172 0.131101 7.44908 0.131101 15.7417C0.131101 18.3907 0.790342 20.9788 2.04419 23.2619L0.00830078 31.0532L7.61543 28.9597C9.70949 30.1589 12.0685 30.789 14.4728 30.789H14.4793C22.3837 30.789 28.9632 24.0411 28.9632 15.7485C28.9632 11.7309 27.3345 7.9572 24.6264 5.1117ZM14.4793 28.2551C12.3335 28.2551 10.233 27.6521 8.40394 26.5139L7.9709 26.2429L3.45962 27.4828L4.66177 22.869L4.37739 22.3947C3.18171 20.4029 2.55478 18.1062 2.55478 15.7417C2.55478 8.8515 7.90627 3.2418 14.4858 3.2418C17.6721 3.2418 20.6645 4.5426 22.9137 6.90708C25.1629 9.27155 26.546 12.4084 26.5395 15.7485C26.5395 22.6454 21.0523 28.2551 14.4793 28.2551ZM21.02 18.8921C20.6645 18.7024 18.9001 17.7945 18.5705 17.6726C18.2409 17.5438 18.0017 17.4829 17.7626 17.8623C17.5234 18.2417 16.8384 19.0818 16.6251 19.3392C16.4182 19.5899 16.205 19.6238 15.8495 19.4341C13.7425 18.3297 12.3594 17.4625 10.9698 14.9626C10.6014 14.2986 11.3382 14.346 12.0233 12.9097C12.1396 12.6591 12.0815 12.4423 11.991 12.2526C11.9005 12.0629 11.1831 10.2133 10.8858 9.46125C10.5949 8.72955 10.2976 8.83118 10.0779 8.81763C9.87107 8.80408 9.63193 8.80408 9.3928 8.80408C9.15366 8.80408 8.76587 8.89893 8.43625 9.27155C8.10663 9.65095 7.1824 10.5588 7.1824 12.4084C7.1824 14.258 8.46857 16.0466 8.64307 16.2972C8.82404 16.5479 11.1702 20.3419 14.7701 21.9747C17.0452 23.0045 17.9371 23.0926 19.0746 22.9164C19.7662 22.808 21.1945 22.0086 21.4918 21.1278C21.7891 20.2471 21.7891 19.495 21.6986 19.3392C21.6146 19.1698 21.3755 19.075 21.02 18.8921Z" fill="black"/>
</svg>
