<svg width="30" height="21" viewBox="0 0 30 21" fill="none" xmlns="http://www.w3.org/2000/svg">
<path d="M3.64795 0.47998H27.3379L27.7769 0.507802L27.9893 0.535623L28.2725 0.619086L28.499 0.70255L28.8105 0.869477L28.9663 0.980762L29.1221 1.10596L29.2637 1.23115L29.4194 1.39808L29.561 1.57892L29.646 1.71802L29.8018 2.01015L29.9434 2.42746L29.9717 2.55266H30V18.4246H29.9717L29.9292 18.6194L29.8159 18.9672L29.7026 19.2036L29.561 19.4401L29.4336 19.5931L29.2778 19.774L29.1787 19.8713L29.0229 19.9965L28.7964 20.1496L28.4424 20.3304L28.1025 20.4417L27.8193 20.4973L27.522 20.5251H3.47803L3.03906 20.4834L2.61426 20.3582L2.3877 20.2469L2.17529 20.1356L2.00537 20.0104L1.84961 19.8853L1.70801 19.7601L1.53809 19.5653L1.39648 19.3706L1.22656 19.0645L1.15576 18.8976L1.05664 18.5777L1.02832 18.4664V18.3968H1V2.66394L1.02832 2.56657L1.08496 2.33009L1.19824 1.99623L1.36816 1.6902L1.46729 1.53719L1.62305 1.35635L1.72217 1.24506L1.84961 1.11987L2.04785 0.966851L2.18945 0.869477L2.50098 0.70255L2.71338 0.619086L3.0249 0.535623L3.36475 0.493891L3.64795 0.47998ZM3.95947 2.16316L3.94531 2.20489L4.05859 2.30227L6.2959 4.50014H6.32422L6.35254 4.55578H6.38086L6.40918 4.61143H6.4375L6.45166 4.65316L6.56494 4.75053L9.24121 7.37963H9.26953L9.29785 7.43528H9.32617L9.35449 7.49092H9.38281L9.41113 7.54656H9.43945L9.45361 7.58829L9.53857 7.65784L9.60938 7.74131L9.7085 7.82477L11.4502 9.53577H11.4785L11.5068 9.59142H11.5352L11.5635 9.64706H11.5918L11.6201 9.7027H11.6484L11.6626 9.74443L11.7759 9.84181L13.6875 11.7197L13.8433 11.8449L14.0273 11.9979L14.2114 12.1092L14.5371 12.2762L14.9194 12.3874L15.1885 12.4292L15.3159 12.4431H15.6841L16.0239 12.4014L16.4487 12.2762L16.7886 12.1092L16.9443 12.0119L17.1284 11.8588L17.27 11.7476L17.3691 11.6641L17.4258 11.6085V11.5806H17.4541V11.5528H17.4824V11.525H17.5107V11.4972L17.5674 11.4693L20.0171 9.06281L20.1162 8.97935V8.95153L20.1729 8.92371V8.89589L20.2295 8.86807L22.6084 6.53109L22.6367 6.51718V6.48936H22.665V6.46153H22.6934V6.43371H22.7217V6.40589H22.75V6.37807H22.7783V6.35025H22.8066V6.32243L22.8633 6.29461V6.26679L22.9199 6.23896V6.21114L22.9766 6.18332V6.1555L23.0332 6.12768V6.09986L23.0898 6.07204L25.0439 4.15238L25.1289 4.08282L25.1997 4.01327V3.98545L25.2563 3.95763V3.92981L25.313 3.90199V3.87416L25.3696 3.84634L27.0688 2.17707V2.16316H3.95947ZM2.71338 3.37338L2.69922 4.26366V17.5065L2.71338 17.6456L2.8125 17.5622L3.76123 16.6302L3.86035 16.5467V16.5189L3.91699 16.4911L6.0127 14.4323L6.04102 14.4184V14.3906H6.06934V14.3627H6.09766V14.3349H6.12598V14.3071H6.1543V14.2793H6.18262V14.2515H6.21094V14.2236L6.26758 14.1958V14.168L6.32422 14.1402V14.1124L6.38086 14.0845L8.05176 12.4431L8.13672 12.3735L8.20752 12.304V12.2762L8.26416 12.2483V12.2205L8.3208 12.1927V12.1649L8.37744 12.1371L10.02 10.5234L9.9917 10.4678L8.22168 8.72896H8.19336L8.16504 8.67332H8.13672L8.1084 8.61768H8.08008L8.05176 8.56203H8.02344V8.53421H7.99512V8.50639H7.9668V8.47857H7.93848V8.45075L7.83936 8.36728L7.76855 8.28382L7.65527 8.18645L5.37549 5.94684L5.29053 5.87729L5.20557 5.77992L5.09229 5.68254L2.98242 3.60986L2.86914 3.51249L2.72754 3.37338H2.71338ZM28.2725 3.37338L28.0459 3.59595L28.0176 3.60986V3.63768H27.9893V3.66551H27.9609V3.69333H27.9326V3.72115H27.9043V3.74897L27.8477 3.77679V3.80461L27.791 3.83243L25.4263 6.1555L25.3271 6.23896L25.2563 6.30852V6.33634L25.1997 6.36416V6.39198L25.1431 6.4198V6.44762L25.0864 6.47544L22.3535 9.16019L22.2969 9.20192V9.22974L22.2402 9.25756V9.28538L22.1836 9.3132V9.34103L22.127 9.36885V9.39667L22.0703 9.42449V9.45231L22.0137 9.48013V9.50795L21.957 9.53577V9.5636L21.9004 9.59142V9.61924L21.8438 9.64706V9.67488L21.7871 9.7027V9.73052L21.7305 9.75834L20.9941 10.4817L20.98 10.5234L23.2314 12.7352H23.2598L23.2881 12.7909H23.3164L23.3447 12.8465H23.373L23.3872 12.8882L23.5005 12.9856L25.7236 15.1696H25.752L25.7803 15.2252H25.8086L25.8228 15.2669L25.9077 15.3365L25.9785 15.42L26.0776 15.5034L27.4795 16.8806H27.5078L27.5361 16.9362H27.5645L27.5928 16.9918H27.6211L27.6494 17.0475L27.7627 17.1449L28.2725 17.6456H28.2866V3.37338H28.2725ZM19.748 11.7058L19.6348 11.8032L19.5498 11.9006L19.5215 11.9145V11.9423L19.4648 11.9701L18.417 12.9995L18.3037 13.0969L18.0771 13.2777L17.8364 13.4446L17.624 13.5698L17.4541 13.6672L17.1143 13.8202L16.647 13.9733L16.2788 14.0567L15.854 14.1124L15.6416 14.1263H15.3584L14.9902 14.0984L14.6221 14.0428L14.2397 13.9454L13.8857 13.8202L13.4893 13.6394L13.2061 13.4725L12.9653 13.3055L12.8237 13.1943L12.6821 13.0691L12.5264 12.9439L11.521 11.9562H11.4927L11.4644 11.9006H11.436L11.4077 11.8449L11.3086 11.7615L11.2803 11.7197L11.2095 11.7336L10.7705 12.1649L10.7422 12.1788V12.2066H10.7139V12.2344H10.6855V12.2622H10.6572V12.2901H10.6289V12.3179H10.6006V12.3457H10.5723V12.3735H10.5439V12.4014H10.5156V12.4292H10.4873V12.457H10.459V12.4848L10.4023 12.5126L8.71729 14.168L8.604 14.2654V14.2932L8.54736 14.321V14.3488L8.49072 14.3767L6.42334 16.4076L6.32422 16.4911V16.5189L6.26758 16.5467V16.5745L6.21094 16.6024V16.6302L6.1543 16.658V16.6858L6.09766 16.7136V16.7415L6.04102 16.7693V16.7971L5.98438 16.8249V16.8527L5.92773 16.8806L4.21436 18.5637L4.10107 18.6611L3.93115 18.828V18.842L24.605 18.8559L27.0547 18.842L27.0405 18.8002L26.9272 18.7029L24.3076 16.1294H24.2793L24.251 16.0738H24.2227L24.1943 16.0181H24.166V15.9903H24.1377V15.9625L24.0386 15.879L23.9678 15.7955L23.8545 15.6982L22.1411 14.015H22.1128L22.0845 13.9593L21.9995 13.8898L20.3711 12.2901H20.3428L20.3145 12.2344L20.2153 12.151L19.7622 11.7058H19.748Z" fill="white"/>
</svg>
