<svg width="29" height="27" viewBox="0 0 29 27" fill="none" xmlns="http://www.w3.org/2000/svg">
<g clip-path="url(#clip0_0_339)">
<path d="M13.7749 0.42334H15.6602V0.436544L16.4644 0.528973L17.0576 0.621403L17.5718 0.727036L17.9541 0.819466L18.4419 0.951508L18.8242 1.07035L19.3516 1.2552L19.8394 1.45327L20.1953 1.61172L20.5645 1.78337L21.0918 2.06066L21.4082 2.24552L21.6982 2.41717L21.9224 2.56242L22.252 2.78689L22.5156 2.97175L22.7925 3.18302L22.9507 3.30185L23.0957 3.42069L23.2275 3.52633L23.3989 3.67157L23.5967 3.84323L23.7549 3.98847L23.8604 4.0809L23.9658 4.18653L23.9922 4.19974V4.22615L24.0449 4.25256L24.0845 4.30537L24.1108 4.37139L24.269 4.54305L24.4141 4.68829L24.5063 4.79393L24.6777 4.97879L24.7964 5.12403L24.915 5.25607L25.0601 5.44093L25.1919 5.59938L25.3501 5.81065L25.5347 6.06153L25.7192 6.32561L25.8247 6.48406L26.0093 6.77456L26.207 7.10466L26.3784 7.40836L26.5234 7.67244L26.6289 7.88371L26.8003 8.24022L26.9453 8.57033L27.1167 8.99286L27.2881 9.46821L27.4199 9.86434L27.5781 10.4321L27.6968 10.9207L27.8022 11.4488L27.8945 12.043L27.9736 12.7693H28V14.8687H27.9736L27.8945 15.6214L27.8154 16.1495L27.7231 16.6381L27.6045 17.1531L27.4858 17.5888L27.3408 18.0509L27.1958 18.4735L27.0508 18.8432L26.9189 19.1601L26.7871 19.4638L26.4707 20.0976L26.2993 20.4013L26.2202 20.5333L26.1411 20.6786L25.9434 20.9955L25.7061 21.352L25.5479 21.5765L25.3633 21.8273L25.2314 21.999L25.0864 22.1838L24.9019 22.4083L24.77 22.5536L24.6514 22.6988L24.5327 22.8176L24.3481 23.0289H24.3218L24.2954 23.0817L23.9658 23.4118L23.8604 23.5043L23.7549 23.6099L23.6494 23.7023L23.5044 23.8344L23.3594 23.9532L23.2144 24.0853L23.0298 24.2305L22.832 24.389L22.5815 24.5738L22.3442 24.7455L21.7905 25.1152L21.5137 25.2868L21.1709 25.4849L20.8281 25.6698L20.604 25.7886L20.3008 25.9338L19.958 26.0923L19.4834 26.2904L19.022 26.462L18.5474 26.6205L18.0991 26.7525L17.4663 26.9109L16.8862 27.0298L16.3853 27.109L15.8315 27.175L15.3701 27.2146L14.8164 27.2411H14.1309L13.6167 27.2146L13.0366 27.1618L12.5356 27.0958L11.9951 27.0034L11.4414 26.8845L10.98 26.7657L10.5317 26.6337L10.0571 26.4752L9.63525 26.3168L9.25293 26.1583L8.89697 25.9999L8.51465 25.815L8.25098 25.683L8.15869 25.6301H8.06641L6.99854 25.9074L6.40527 26.0659L5.73291 26.2375L4.57275 26.5412L1.2373 27.4127L1.06592 27.4655H1V27.3731L1.03955 27.2807L1.19775 26.6865L1.43506 25.8282L1.69873 24.8643L1.92285 24.0456L2.12061 23.3326L2.64795 21.4048L2.77979 20.9295L2.87207 20.5861V20.4937L2.75342 20.2692L2.59521 19.9788L2.35791 19.5034L2.14697 19.028L1.94922 18.5263L1.77783 18.0377L1.63281 17.5756L1.48779 17.0342L1.34277 16.374L1.25049 15.8326L1.19775 15.4629L1.14502 14.9347L1.11865 14.5254L1.10547 14.1953V13.4031L1.13184 12.8485L1.18457 12.2675L1.26367 11.6733L1.38232 11.0131L1.51416 10.4453L1.63281 10.0096L1.79102 9.49462L1.9624 9.01927L2.12061 8.62314L2.29199 8.22702L2.54248 7.71205L2.67432 7.46117L2.80615 7.2235L2.97754 6.93301L3.17529 6.61611L3.3335 6.37843L3.50488 6.12755L3.68945 5.87667L3.82129 5.70502L4.00586 5.46734L4.15088 5.29569L4.26953 5.15044L4.42773 4.97879L4.52002 4.87315L4.66504 4.7147L4.73096 4.63548H4.75732L4.78369 4.58266L5.1001 4.26576L5.20557 4.17333L5.32422 4.05449L5.42969 3.96206L5.56152 3.84323L5.66699 3.7508L5.8252 3.61875L5.97021 3.49992L6.18115 3.32826L6.39209 3.16981L6.58984 3.02457L6.81396 2.86612L7.16992 2.62844L7.61816 2.35115L7.9873 2.13988L8.35645 1.94182L8.72559 1.75696L9.16064 1.5589L9.6748 1.34763L10.1494 1.17598L10.624 1.01753L11.2832 0.83267L11.8501 0.700628L12.4038 0.594994L13.063 0.502565L13.7749 0.42334ZM14.2627 2.64164L13.709 2.66805L13.1685 2.72087L12.6147 2.80009L12.0874 2.90573L11.5601 3.03777L11.0327 3.19622L10.624 3.34147L10.1626 3.52633L9.84619 3.67157L9.5166 3.83002L9.16064 4.01488L8.80469 4.22615L8.56738 4.37139L8.36963 4.50344L8.11914 4.67509L7.86865 4.85995L7.68408 5.00519L7.55225 5.11083L7.38086 5.25607L7.23584 5.37491L7.14355 5.46734L7.03809 5.55977L6.87988 5.70502L6.44482 6.14076L6.35254 6.24639L6.19434 6.41804L6.07568 6.56329L5.91748 6.74815L5.77246 6.93301L5.65381 7.09146L5.46924 7.34234L5.32422 7.5536L5.19238 7.75167L4.98145 8.09498L4.82324 8.37226L4.65186 8.68916L4.44092 9.1117L4.24316 9.56064L4.11133 9.90395L3.95312 10.3529L3.82129 10.7754L3.68945 11.2772L3.5708 11.845L3.51807 12.1619L3.46533 12.5448L3.42578 12.9145L3.39941 13.3767V14.2745L3.42578 14.7235L3.4917 15.3177L3.55762 15.7402L3.66309 16.2552L3.76855 16.6777L3.92676 17.2059L4.08496 17.6548L4.28271 18.1434L4.4541 18.5263L4.55957 18.7376L4.74414 19.0941L4.92871 19.411L5.06055 19.6354L5.19238 19.8467L5.3374 20.0712L5.36377 20.1108L5.35059 20.2032L5.06055 21.2596L4.42773 23.5571L4.25635 24.1777L4.26953 24.2173L5.04736 24.0192L6.60303 23.6099L7.32812 23.425L8.02686 23.2402L8.396 23.1478H8.48828L8.84424 23.359L9.14746 23.5307L9.45068 23.6891L9.6748 23.808L10.0176 23.9664L10.5186 24.1777L10.8745 24.3097L11.3623 24.4682L11.7314 24.5738L12.2983 24.7059L12.8125 24.7983L13.2871 24.8643L13.9199 24.9171L14.2231 24.9303H14.8296L15.3306 24.9039L15.7656 24.8643L16.2534 24.7983L16.7676 24.7059L17.3345 24.5738L17.7168 24.4682L18.1255 24.3361L18.5605 24.1777L18.9824 24.006L19.3647 23.8344L19.5757 23.7287L19.958 23.5307L20.2744 23.3458L20.5381 23.1874L20.8018 23.0157L21.0522 22.8441L21.2896 22.6724L21.4609 22.5404L21.6455 22.3951L21.8301 22.2367L21.9751 22.1178L22.1729 21.933L22.3838 21.7481V21.7217H22.4102V21.6953L22.4629 21.6689L22.5684 21.5633V21.5368L22.6211 21.5104V21.484H22.6475L22.7397 21.3784L22.8584 21.2596L22.9507 21.1539L22.9639 21.1143H22.9902L23.0825 21.0087L23.2012 20.8634L23.3462 20.6918L23.5176 20.4673L23.7021 20.2164L23.834 20.0316L23.9658 19.8335L24.1108 19.609L24.2427 19.3846L24.4009 19.1073L24.5591 18.8036L24.6646 18.5923L24.8491 18.1962L25.0205 17.7736L25.1787 17.3247L25.3237 16.8626L25.4556 16.3608L25.561 15.8458L25.627 15.4365L25.6665 15.1592L25.7192 14.5914L25.7456 13.9708V13.6671L25.7192 13.0069L25.6665 12.4524L25.5874 11.8978L25.4819 11.3564L25.3501 10.8282L25.2051 10.3529L25.0601 9.93036L24.8887 9.49462L24.7305 9.13811L24.5459 8.75519L24.3745 8.42508L24.2427 8.20061L24.0713 7.91012L23.834 7.5536L23.689 7.34234L23.5044 7.09146L23.3594 6.9066L23.188 6.69533L23.0693 6.55009L22.8979 6.36523L22.8057 6.25959L22.6211 6.06153L22.2256 5.6654L22.1201 5.57298L21.9751 5.44093L21.8696 5.3485L21.6851 5.19005L21.5005 5.04481L21.2632 4.85995L21.0259 4.68829L20.8149 4.54305L20.5513 4.37139L20.3008 4.21294L19.7339 3.89604L19.2856 3.67157L18.7979 3.4603L18.4551 3.32826L17.8354 3.117L17.2554 2.95854L16.7148 2.83971L16.1611 2.74728L15.5547 2.68126L15.1328 2.65485L14.7769 2.64164H14.2627Z" fill="white"/>
<path d="M9.89893 7.56689H10.0703L10.6504 7.5933L10.7954 7.63292L10.9272 7.72534L11.0195 7.83098L11.125 8.00263L11.27 8.31953L11.4546 8.76848L11.5864 9.08538L12.0347 10.1681L12.1929 10.5378L12.2983 10.7887L12.3247 10.8679L12.3379 11.0396L12.2983 11.198L12.1929 11.3961L12.127 11.5149L11.9688 11.7526L11.8105 11.9639L11.6523 12.1487L11.5337 12.2808L11.4414 12.3864L11.3096 12.5449L11.2305 12.7033L11.2173 12.7429V12.9146L11.27 13.0598L11.3755 13.2447L11.5864 13.5748L11.7314 13.7861L11.8896 14.0105L12.0742 14.2482L12.2192 14.4331L12.5356 14.8028L12.7466 15.0273L13.0498 15.331L13.1553 15.4234L13.3003 15.5554L13.4453 15.6743L13.6562 15.8459L13.9067 16.0308L14.2231 16.242L14.4736 16.4005L14.8164 16.5986L15.0933 16.7438L15.4624 16.9155L15.7656 17.0475L15.9106 17.1135L16.082 17.1663L16.1611 17.1795H16.2798L16.438 17.1135L16.5698 16.9947L16.6753 16.8759L16.7939 16.7306L16.9126 16.5986L17.0312 16.4533L17.0576 16.4137H17.084L17.1104 16.3609L17.2817 16.1496L17.4268 15.9648L17.6113 15.7139L17.7168 15.5818L17.8223 15.4894L17.9409 15.4498H18.0991L18.2969 15.4894L18.6133 15.6082L18.9692 15.7667L19.4043 15.978L19.6548 16.0968L20.5776 16.5589L20.6699 16.5986L20.6831 16.5457L20.8018 16.5722L21.105 16.7174L21.2764 16.8362L21.3555 16.9419L21.395 17.1135V17.404L21.3555 17.7341L21.2764 18.117L21.1841 18.4339L21.0918 18.6716L20.96 18.8829L20.8413 19.0281L20.7622 19.1206L20.6567 19.213L20.4985 19.3582L20.2612 19.5299L20.0107 19.6883L19.7207 19.8468L19.4702 19.9656L19.1406 20.0845L18.8638 20.1505L18.4155 20.2033L17.9805 20.2165L17.6904 20.2033L17.2949 20.1505L16.9785 20.0845L16.5962 19.9656L16.0293 19.7676L15.436 19.5431L14.9482 19.345L14.5923 19.1866L14.1572 18.9753L13.8013 18.7905L13.4717 18.5924L13.2607 18.4604L12.9443 18.2491L12.6938 18.0642L12.4829 17.9058L12.3115 17.7605L12.127 17.6153L11.9424 17.4436L11.8369 17.3512L11.5205 17.0607L11.0195 16.5589V16.5325H10.9932L10.9009 16.4269L10.7163 16.2288L10.5581 16.0572L10.4395 15.9119L10.3076 15.7667L10.2153 15.6611L10.0308 15.4366L9.88574 15.2649L9.74072 15.0801L9.60889 14.9216L9.46387 14.7368L9.09473 14.2614L8.88379 13.9577L8.69922 13.6672L8.50146 13.3371L8.31689 12.9938L8.14551 12.6373L7.9873 12.2412L7.86865 11.8715L7.78955 11.5414L7.73682 11.2113L7.71045 10.934V10.5642L7.75 10.1945L7.81592 9.87763L7.92139 9.53432L8.04004 9.24383L8.14551 9.03256L8.29053 8.76848L8.46191 8.5176L8.62012 8.30633L8.73877 8.16108L8.89697 7.97622L8.98926 7.8838L9.17383 7.75175L9.39795 7.64612L9.60889 7.5933L9.89893 7.56689Z" fill="white"/>
</g>
<defs>
<clipPath id="clip0_0_339">
<rect width="29" height="27" fill="white"/>
</clipPath>
</defs>
</svg>
