<svg width="199" height="128" viewBox="0 0 199 128" fill="none" xmlns="http://www.w3.org/2000/svg">
<path d="M36.8048 38.3838H25.5921C25.0322 38.3838 24.7522 38.0629 24.7522 37.421C24.7522 36.8233 25.0027 36.4662 25.5037 36.3459C26.1998 36.3258 26.5498 36.033 26.5498 35.4633C26.5498 35.1343 26.4098 34.685 26.1372 34.1154C25.3011 32.2138 24.1334 29.4859 22.6305 25.9315H9.28131L6.15766 33.4414C5.92928 33.9469 5.81878 34.3681 5.81878 34.7091C5.81878 34.8375 5.85561 35.03 5.93665 35.2868C6.014 35.5435 6.40814 35.8805 7.11539 36.2977C7.47637 36.5224 7.66055 36.8834 7.66055 37.3729C7.66055 38.0468 7.29588 38.3838 6.57022 38.3838H2.07629C1.35063 38.3838 0.985962 38.0468 0.985962 37.3729C0.985962 36.8834 1.17014 36.5224 1.53113 36.2977L2.23837 35.8645C2.7909 35.5877 3.28081 35.2667 3.71179 34.9017C4.14276 34.5286 4.50743 33.983 4.80212 33.2649L18.6523 0H20.052L34.6536 33.5216C34.9962 34.3882 35.324 35.01 35.6408 35.3831C35.9649 35.7602 36.4401 35.9447 37.07 35.9447C37.5304 35.9447 37.8509 36.1453 38.0277 36.5384C38.094 36.731 38.1309 36.9236 38.1309 37.1161C38.1309 37.9626 37.6888 38.3838 36.8048 38.3838ZM21.9822 24.4071C18.8364 17.0176 16.7994 12.2397 15.8675 10.0774L9.92962 24.4071H21.9822Z" fill="white"/>
<path d="M57.4281 27.2152V20.3633C57.4281 17.9884 57.2955 16.1711 57.0303 14.9074C56.6177 12.9818 55.6747 12.019 54.2013 12.019C53.2289 12.019 52.3669 12.5926 51.6228 13.736C50.8861 14.8713 50.3704 16.3837 50.0758 18.2772V33.8265C50.2415 34.9618 50.7756 35.7842 51.6818 36.2977C52.0244 36.5344 52.1975 36.8714 52.1975 37.3086C52.1975 38.0067 51.8328 38.3517 51.1071 38.3517L45.6555 38.3838L40.1744 38.3517C39.445 38.3517 39.084 38.0267 39.084 37.3728C39.084 36.8834 39.2645 36.5223 39.6292 36.2977C40.4912 35.7842 41.029 34.9618 41.2352 33.8265V18.0686C41.2352 16.508 41.1063 15.4048 40.8521 14.763C40.5943 14.1211 40.1744 13.6317 39.585 13.2867C39.2498 13.054 39.084 12.7009 39.084 12.2276C39.084 11.5656 39.4229 11.2327 40.1007 11.2327C42.8892 11.2327 45.6702 10.7633 48.4403 9.82056C48.606 9.74835 48.7681 9.70823 48.9265 9.70823C49.328 9.70823 49.619 9.82858 49.7958 10.0613C49.98 10.2979 50.0758 10.7513 50.0758 11.4252V13.3187C51.4902 10.3982 53.9729 8.93799 57.5313 8.93799C63.296 8.93799 66.2023 13.2144 66.2539 21.7593V29.7827H66.2244C66.2244 31.957 66.2134 33.2929 66.195 33.7944V37.3407C66.195 44.4093 67.9262 47.9476 71.3961 47.9476C72.3465 47.9476 73.1679 47.6026 73.8567 46.9206C74.5529 46.2467 74.9029 45.1635 74.9029 43.6792C74.9029 42.7244 75.2454 41.8418 75.9343 41.0315C76.6305 40.2291 77.4666 39.828 78.4391 39.828C79.5368 39.828 80.4208 40.173 81.0912 40.871C81.7579 41.565 82.1116 42.4275 82.1521 43.4545C82.1521 44.5216 81.8022 45.5486 81.106 46.5355C80.4171 47.5304 79.2789 48.3809 77.6876 49.0869C76.1037 49.793 73.9893 50.146 71.3372 50.146C67.9262 50.146 65.2004 49.3758 63.1597 47.8353C59.3178 44.9669 57.3986 39.6755 57.3986 31.9651V27.4078C57.3986 27.3356 57.406 27.2714 57.4281 27.2152Z" fill="white"/>
<path d="M89.5516 38.3838C88.6454 38.3838 87.813 38.2073 87.0468 37.8542C85.3671 37.096 84.5015 35.5836 84.4536 33.313C82.5676 36.6949 79.9081 38.3838 76.4824 38.3838C74.939 38.3838 73.6276 38.0227 72.5483 37.2926C71.4654 36.5665 70.6366 35.6237 70.0583 34.4684C69.4873 33.305 69.2037 32.0614 69.2037 30.7455C69.2037 27.2794 70.4708 24.72 73.0051 23.0591C75.1452 21.6591 77.8269 20.957 81.05 20.957C82.2471 20.957 83.3927 21.0332 84.483 21.1817L84.5125 15.9183C84.5125 15.128 84.4167 14.3859 84.2326 13.6878C84.0557 12.9938 83.7316 12.4121 83.2601 11.9387C82.7886 11.4694 82.1182 11.2327 81.2562 11.2327C80.4974 11.2327 79.8712 11.4573 79.3703 11.9067C78.8767 12.356 78.5157 12.9457 78.2799 13.6718C78.0516 14.4019 77.9411 15.1802 77.9411 16.0146C77.9411 17.2783 77.6169 18.213 76.9686 18.8228C76.3277 19.4246 75.613 19.7214 74.8174 19.7214C73.9334 19.7214 73.1819 19.4286 72.5631 18.8388C71.9516 18.2411 71.6496 17.3385 71.6496 16.1269C71.6496 15.0919 72.0216 14.081 72.7693 13.0941C73.5245 12.1113 74.6295 11.3049 76.0845 10.6711C77.5469 10.0292 79.3334 9.70825 81.4478 9.70825C84.5604 9.70825 87.242 10.5668 89.4927 12.2757C92.0159 14.2254 93.2793 16.9574 93.2793 20.4756V32.7032C93.2793 33.4334 93.4046 33.9348 93.6624 34.2116C93.9277 34.4924 94.3034 34.7091 94.797 34.8695C95.158 35.03 95.3421 35.2988 95.3421 35.6719C95.3421 36.5183 94.447 37.2445 92.6605 37.8542C91.6586 38.2073 90.6198 38.3838 89.5516 38.3838ZM80.2985 33.7142C81.9377 33.7142 83.3227 32.3301 84.4536 29.5581V22.995C84.1294 22.9629 83.8089 22.9468 83.4958 22.9468C82.2471 22.9468 81.1163 23.2116 80.107 23.7331C79.1051 24.2466 78.3462 25.0289 77.8379 26.0759C77.3259 27.115 77.0717 28.1379 77.0717 29.1409C77.0717 30.3845 77.3812 31.4596 78 32.3663C78.6262 33.2649 79.3924 33.7142 80.2985 33.7142Z" fill="white"/>
<path d="M19.0785 84.7326C15.6196 84.7326 12.566 83.8621 9.91382 82.117C8.41093 81.1221 7.10327 79.9106 5.99453 78.4744C4.52111 76.5929 3.40868 74.4708 2.6646 72.1039C1.92052 69.7289 1.5448 67.2898 1.5448 64.7865C1.5448 62.2632 1.92421 59.8201 2.67933 57.4532C3.43446 55.0783 4.56899 52.944 6.08293 51.0505C7.59319 49.157 9.50126 47.6446 11.7998 46.5093C14.1057 45.378 16.8168 44.8083 19.9331 44.8083C22.9278 44.8083 25.6057 45.5104 27.9632 46.9105C30.6154 48.475 31.9414 50.537 31.9414 53.1045C31.9414 54.3883 31.5473 55.4393 30.7627 56.2497C29.9855 57.052 29.0093 57.4532 27.8306 57.4532C26.6703 57.4532 25.7126 57.044 24.9574 56.2176C24.2097 55.3832 23.8376 54.3481 23.8376 53.1045C23.8376 51.2351 23.3661 49.6825 22.4232 48.451C21.4875 47.2113 20.4046 46.5895 19.1669 46.5895C17.6235 46.5895 16.279 47.1913 15.1297 48.3868C13.9878 49.5742 13.0817 51.1388 12.4039 53.0724C11.4904 55.672 11.0336 58.5203 11.0336 61.6093C11.0336 65.9018 11.8624 69.6567 13.5237 72.8741C15.7707 77.2067 19.1116 79.373 23.543 79.373C24.8764 79.373 26.1693 79.1564 27.418 78.7151C28.6631 78.2778 29.746 77.7282 30.6596 77.0623C30.8732 76.946 31.0648 76.8858 31.2342 76.8858C31.3594 76.8858 31.492 76.9259 31.632 76.9981C31.8567 77.1706 31.9709 77.3792 31.9709 77.6239C31.9709 77.7764 31.9267 77.9248 31.8383 78.0732C29.234 82.5142 24.9795 84.7326 19.0785 84.7326Z" fill="white"/>
<path d="M53.004 83.9624C52.0978 83.9624 51.2654 83.7859 50.4992 83.4329C48.8195 82.6746 47.9538 81.1622 47.906 78.8916C46.02 82.2735 43.3605 83.9624 39.9348 83.9624C38.3914 83.9624 37.08 83.6013 36.0007 82.8712C34.9178 82.1451 34.089 81.2024 33.5107 80.047C32.9397 78.8836 32.6561 77.64 32.6561 76.3241C32.6561 72.858 33.9232 70.2986 36.4575 68.6378C38.5976 67.2377 41.2793 66.5356 44.5024 66.5356C45.6995 66.5356 46.8451 66.6119 47.9354 66.7603L47.9649 61.497C47.9649 60.7067 47.8691 59.9645 47.6849 59.2665C47.5081 58.5724 47.184 57.9907 46.7125 57.5174C46.241 57.048 45.5706 56.8113 44.7086 56.8113C43.9498 56.8113 43.3236 57.036 42.8227 57.4853C42.3291 57.9346 41.9681 58.5243 41.7323 59.2504C41.504 59.9805 41.3934 60.7588 41.3934 61.5932C41.3934 62.8569 41.0693 63.7916 40.421 64.4014C39.78 65.0032 39.0654 65.3 38.2698 65.3C37.3857 65.3 36.6343 65.0072 36.0155 64.4175C35.404 63.8197 35.1019 62.9171 35.1019 61.7056C35.1019 60.6705 35.474 59.6596 36.2217 58.6727C36.9769 57.6899 38.0819 56.8835 39.5369 56.2497C40.9993 55.6078 42.7858 55.2869 44.9002 55.2869C48.0128 55.2869 50.6944 56.1454 52.9451 57.8543C55.4683 59.804 56.7317 62.536 56.7317 66.0542V78.2818C56.7317 79.012 56.857 79.5134 57.1148 79.7902C57.38 80.0711 57.7558 80.2877 58.2494 80.4482C58.6103 80.6086 58.7945 80.8774 58.7945 81.2505C58.7945 82.097 57.8994 82.8231 56.1129 83.4329C55.111 83.7859 54.0722 83.9624 53.004 83.9624ZM43.7509 79.2928C45.3901 79.2928 46.7751 77.9088 47.906 75.1367V68.5736C47.5818 68.5415 47.2613 68.5254 46.9482 68.5254C45.6995 68.5254 44.5687 68.7902 43.5594 69.3117C42.5574 69.8252 41.7986 70.6075 41.2903 71.6545C40.7783 72.6936 40.5241 73.7166 40.5241 74.7195C40.5241 75.9631 40.8335 77.0382 41.4524 77.9449C42.0786 78.8435 42.8448 79.2928 43.7509 79.2928Z" fill="white"/>
<path d="M67.3252 83.9624L61.8441 83.9303C61.1369 83.9303 60.7833 83.5853 60.7833 82.8873C60.7833 82.438 60.9527 82.101 61.299 81.8763C61.7299 81.6316 62.0725 81.3267 62.3304 80.9617C62.5956 80.5886 62.7908 80.0711 62.9197 79.4051V63.6472C62.9197 62.0867 62.7871 60.9835 62.5219 60.3416C62.2641 59.6997 61.8515 59.2103 61.2842 58.8653C60.949 58.6406 60.7833 58.2956 60.7833 57.8223C60.7833 57.1483 61.1111 56.8113 61.7705 56.8113C64.5773 56.8113 67.3731 56.3299 70.1542 55.3671C70.3016 55.3149 70.4489 55.2869 70.5962 55.2869C71.0162 55.2869 71.3108 55.4072 71.4803 55.6399C71.6571 55.8766 71.7455 56.3299 71.7455 57.0039V58.416C73.1084 55.8605 75.4143 54.5808 78.6558 54.5808C79.8825 54.5808 80.8512 54.8616 81.5585 55.4152C82.5972 56.2938 83.1203 57.4291 83.1203 58.8172C83.1203 59.2344 83.0319 59.7559 82.8551 60.3737C82.6856 60.9955 82.2841 61.5932 81.6469 62.1709C81.017 62.7486 80.2177 63.0374 79.2452 63.0374C77.967 63.0374 77.0793 62.3956 76.5783 61.1118C76.2836 60.3336 75.9595 59.7118 75.6059 59.2504C75.2522 58.7931 74.8139 58.5604 74.2945 58.5604C73.5946 58.5604 73.0458 59.0017 72.6443 59.8762C72.2501 60.7548 71.9997 61.5932 71.8928 62.3956C71.7934 63.1979 71.7455 64.0604 71.7455 64.9791V79.4051C71.8634 80.0711 72.0476 80.5886 72.3054 80.9617C72.5706 81.3267 72.9169 81.6316 73.3515 81.8763C73.7125 82.101 73.8967 82.462 73.8967 82.9515C73.8967 83.6054 73.532 83.9303 72.8064 83.9303L67.3252 83.9624Z" fill="white"/>
<path d="M97.045 84.4917C94.5291 84.4917 92.2343 83.898 90.1641 82.7105C88.1013 81.5151 86.4511 79.8021 85.2134 77.5756C83.9831 75.3531 83.3716 72.6974 83.3716 69.6164C83.3716 66.5274 83.9831 63.8677 85.2134 61.6412C86.4511 59.4187 88.1013 57.7057 90.1641 56.5062C92.2343 55.3107 94.5291 54.709 97.045 54.709C99.5498 54.709 101.834 55.2827 103.896 56.426C105.967 57.5733 107.624 59.2502 108.862 61.4647C110.107 63.6791 110.733 66.399 110.733 69.6164C110.733 72.8258 110.107 75.5377 108.862 77.7521C107.624 79.9666 105.967 81.6475 103.896 82.7908C101.834 83.9261 99.5498 84.4917 97.045 84.4917ZM97.045 82.9673C98.5479 82.9673 99.6861 82.1008 100.463 80.3677C101.414 78.2937 101.893 74.7112 101.893 69.6164C101.893 64.5256 101.414 60.9351 100.463 58.849C99.6861 57.128 98.5479 56.2655 97.045 56.2655C96.3672 56.2655 95.7373 56.418 95.159 56.7148C94.577 57.0037 94.0687 57.6054 93.6266 58.5121C93.1846 59.4107 92.8347 60.7506 92.5805 62.5237C92.3337 64.3009 92.2122 66.6638 92.2122 69.6164C92.2122 72.581 92.3337 74.9519 92.5805 76.7251C92.8347 78.4903 93.1846 79.8302 93.6266 80.7368C94.0687 81.6475 94.577 82.2452 95.159 82.534C95.7373 82.8229 96.3672 82.9673 97.045 82.9673Z" fill="white"/>
<path d="M123.208 79.4051C123.385 80.5404 123.923 81.3628 124.829 81.8763C125.172 82.113 125.345 82.45 125.345 82.8873C125.345 83.5853 124.98 83.9303 124.254 83.9303L118.803 83.9624L113.322 83.9303C112.592 83.9303 112.231 83.6054 112.231 82.9515C112.231 82.462 112.412 82.101 112.776 81.8763C113.638 81.3628 114.176 80.5404 114.382 79.4051V53.5859H114.412C114.342 52.3784 113.977 51.3193 113.322 50.4087C112.574 49.4138 111.646 48.5914 110.537 47.9375C109.417 47.2755 108.238 46.7821 107.001 46.4612C105.763 46.1402 104.64 45.9798 103.627 45.9798C102.418 45.9798 101.531 46.5735 100.96 47.761C100.098 49.2292 99.0552 49.9594 97.836 49.9594C97.2466 49.9594 96.6573 49.7187 96.0679 49.2373C95.4785 48.7559 95.1838 47.9535 95.1838 46.8302C95.1838 46.1884 95.3606 45.5706 95.7143 44.9688C96.0605 44.359 96.6094 43.8576 97.3645 43.4604C98.1123 43.0673 99.0958 42.8667 100.311 42.8667C101.855 42.8667 103.236 43.0713 104.452 43.4765C105.671 43.8857 106.846 44.351 107.973 44.8725C109.027 45.366 110.11 45.7992 111.229 46.1723C112.349 46.5494 113.591 46.734 114.957 46.734C117.315 46.734 119.617 46.3609 121.867 45.6107L122.103 45.5786C122.494 45.5786 122.774 45.699 122.943 45.9316C123.12 46.1683 123.208 46.6297 123.208 47.3116V79.4051Z" fill="white"/>
<path d="M134.089 53.9227C133.153 53.9227 132.299 53.7702 131.525 53.4573C130.759 53.1484 130.144 52.6871 129.684 52.0773C129.23 51.4595 129.006 50.6893 129.006 49.7666C129.006 48.8278 129.23 48.0496 129.684 47.4398C130.144 46.822 130.759 46.3566 131.525 46.0437C132.299 45.7348 133.153 45.5784 134.089 45.5784C135.492 45.5784 136.69 45.9555 137.684 46.7016C138.686 47.4398 139.187 48.4628 139.187 49.7666C139.187 51.0744 138.686 52.0933 137.684 52.8315C136.69 53.5616 135.492 53.9227 134.089 53.9227ZM134.089 83.9622L128.608 83.9301C127.901 83.9301 127.547 83.5851 127.547 82.887C127.547 82.4377 127.717 82.1008 128.063 81.8761C128.505 81.6314 128.851 81.3265 129.109 80.9614C129.363 80.5884 129.555 80.0708 129.684 79.4049V63.647C129.684 62.0865 129.551 60.9832 129.286 60.3414C129.028 59.6995 128.615 59.2101 128.048 58.8651C127.713 58.6404 127.547 58.2954 127.547 57.822C127.547 57.1481 127.886 56.8111 128.564 56.8111C131.352 56.8111 134.141 56.3297 136.933 55.3669C137.069 55.3147 137.213 55.2866 137.36 55.2866C137.78 55.2866 138.075 55.407 138.244 55.6397C138.421 55.8764 138.509 56.3297 138.509 57.0037V79.4049C138.627 80.0708 138.811 80.5884 139.069 80.9614C139.334 81.3265 139.681 81.6314 140.115 81.8761C140.476 82.1008 140.66 82.4618 140.66 82.9512C140.66 83.6051 140.296 83.9301 139.57 83.9301L134.089 83.9622Z" fill="white"/>
<path d="M165.984 83.9624C165.1 83.9624 164.268 83.7859 163.494 83.4328C161.763 82.6546 160.901 81.074 160.901 78.699V65.9419C160.901 63.567 160.768 61.7497 160.503 60.486C160.091 58.5604 159.148 57.5976 157.674 57.5976C156.702 57.5976 155.84 58.1712 155.096 59.3146C154.359 60.4499 153.843 61.9623 153.549 63.8558V79.4051C153.714 80.5404 154.248 81.3628 155.155 81.8763C155.497 82.113 155.67 82.45 155.67 82.8872C155.67 83.5853 155.306 83.9303 154.58 83.9303L149.128 83.9624L143.647 83.9303C142.918 83.9303 142.557 83.6053 142.557 82.9514C142.557 82.462 142.737 82.101 143.102 81.8763C143.964 81.3628 144.502 80.5404 144.708 79.4051V63.6472C144.708 62.0867 144.579 60.9834 144.325 60.3416C144.067 59.6997 143.647 59.2103 143.058 58.8653C142.723 58.6326 142.557 58.2796 142.557 57.8062C142.557 57.1443 142.896 56.8113 143.574 56.8113C146.362 56.8113 149.143 56.3419 151.913 55.3992C152.079 55.327 152.241 55.2868 152.399 55.2868C152.801 55.2868 153.092 55.4072 153.269 55.6399C153.453 55.8766 153.549 56.3299 153.549 57.0038V58.8974C154.963 55.9769 157.446 54.5166 161.004 54.5166C166.769 54.5166 169.675 58.7931 169.727 67.3379V78.2818C169.727 79.012 169.867 79.5174 170.154 79.8063C170.438 80.0871 170.839 80.3117 171.362 80.4802C171.675 80.6206 171.834 80.8453 171.834 81.1542C171.834 81.1783 171.826 81.2946 171.819 81.5072C171.808 81.7118 171.657 81.9525 171.362 82.2293C170.861 82.6907 170.11 83.0959 169.108 83.4489C168.113 83.7939 167.075 83.9624 165.984 83.9624Z" fill="white"/>
<path d="M193.025 83.9624C192.119 83.9624 191.286 83.7859 190.52 83.4329C188.84 82.6746 187.975 81.1622 187.927 78.8916C186.041 82.2735 183.381 83.9624 179.956 83.9624C178.412 83.9624 177.101 83.6013 176.022 82.8712C174.939 82.1451 174.11 81.2024 173.532 80.047C172.961 78.8836 172.677 77.64 172.677 76.3241C172.677 72.858 173.944 70.2986 176.478 68.6378C178.619 67.2377 181.3 66.5356 184.523 66.5356C185.721 66.5356 186.866 66.6119 187.956 66.7603L187.986 61.497C187.986 60.7067 187.89 59.9645 187.706 59.2665C187.529 58.5724 187.205 57.9907 186.733 57.5174C186.262 57.048 185.592 56.8113 184.73 56.8113C183.971 56.8113 183.345 57.036 182.844 57.4853C182.35 57.9346 181.989 58.5243 181.753 59.2504C181.525 59.9805 181.414 60.7588 181.414 61.5932C181.414 62.8569 181.09 63.7916 180.442 64.4014C179.801 65.0032 179.086 65.3 178.291 65.3C177.407 65.3 176.655 65.0072 176.036 64.4175C175.425 63.8197 175.123 62.9171 175.123 61.7056C175.123 60.6705 175.495 59.6596 176.243 58.6727C176.998 57.6899 178.103 56.8835 179.558 56.2497C181.02 55.6078 182.807 55.2869 184.921 55.2869C188.034 55.2869 190.715 56.1454 192.966 57.8543C195.489 59.804 196.753 62.536 196.753 66.0542V78.2818C196.753 79.012 196.878 79.5134 197.136 79.7902C197.401 80.0711 197.777 80.2877 198.27 80.4482C198.631 80.6086 198.816 80.8774 198.816 81.2505C198.816 82.097 197.92 82.8231 196.134 83.4329C195.132 83.7859 194.093 83.9624 193.025 83.9624ZM183.772 79.2928C185.411 79.2928 186.796 77.9088 187.927 75.1367V68.5736C187.603 68.5415 187.282 68.5254 186.969 68.5254C185.721 68.5254 184.59 68.7902 183.58 69.3117C182.578 69.8252 181.82 70.6075 181.311 71.6545C180.799 72.6936 180.545 73.7166 180.545 74.7195C180.545 75.9631 180.855 77.0382 181.473 77.9449C182.1 78.8435 182.866 79.2928 183.772 79.2928Z" fill="white"/>
<path d="M12.0454 126.476H3.21959L2.17346 126.444C1.44412 126.444 1.08313 126.099 1.08313 125.401C1.08313 124.964 1.25257 124.627 1.59883 124.39C2.5013 123.877 3.04278 123.054 3.21959 121.919V92.6496C3.04278 91.5183 2.5013 90.6919 1.59883 90.1784C1.25257 89.9457 1.08313 89.6087 1.08313 89.1674C1.08313 88.4734 1.43675 88.1204 2.14399 88.1083C2.8586 88.1003 9.98627 88.0923 23.5233 88.0923C24.5252 88.0923 25.3209 88.2327 25.9102 88.5095C26.4996 88.7783 26.8827 89.2918 27.0595 90.05C27.8146 93.0467 28.194 94.6073 28.194 94.7356C28.194 95.1208 27.9767 95.3133 27.5457 95.3133C27.1811 95.3133 26.9306 95.1328 26.7943 94.7677C26.2233 92.9625 25.1072 91.6547 23.4496 90.8523C21.7884 90.05 19.8287 89.6488 17.5707 89.6488H12.0454V106.514H15.9647C16.7382 106.514 17.5339 106.394 18.3516 106.145C20.186 105.611 21.2174 104.476 21.4458 102.743C21.4937 102.37 21.7331 102.181 22.1678 102.181C22.6393 102.181 22.875 102.37 22.875 102.743V111.906C22.875 112.227 22.6393 112.387 22.1678 112.387C21.7331 112.387 21.4937 112.219 21.4458 111.874C21.3353 110.955 20.9964 110.213 20.4291 109.643C19.3388 108.584 17.8506 108.054 15.9647 108.054H12.0454V121.919C12.2516 123.054 12.7858 123.877 13.6514 124.39C14.0124 124.615 14.1966 124.976 14.1966 125.465C14.1966 126.119 13.8319 126.444 13.1062 126.444L12.0454 126.476Z" fill="white"/>
<path d="M39.9083 127.246C37.5693 127.246 35.4218 126.717 33.4695 125.658C31.5135 124.599 29.8928 122.978 28.6072 120.796C27.1927 118.176 26.4855 115.372 26.4855 112.387C26.4855 111.97 26.5002 111.549 26.5297 111.119C26.8612 106.843 28.2978 103.417 30.8321 100.85C33.3663 98.282 36.5968 96.9983 40.5272 96.9983C42.7962 96.9983 44.7043 97.3995 46.2588 98.2018C47.8206 99.0041 49.0362 100.039 49.9128 101.299C50.9148 102.787 51.4157 104.428 51.4157 106.225C51.4157 107.393 51.1431 108.592 50.6053 109.82C50.0749 111.039 49.1393 112.138 47.8058 113.109C46.4687 114.084 44.7559 114.722 42.6636 115.019C41.9637 115.139 41.2381 115.195 40.483 115.195C38.899 115.195 37.1567 114.967 35.2523 114.505C35.6059 115.853 36.129 117.065 36.8289 118.132C37.5251 119.191 38.4275 120.037 39.54 120.667C40.6487 121.301 41.9637 121.614 43.4887 121.614C45.7357 121.614 47.8427 120.936 49.8097 119.576C49.9939 119.448 50.1817 119.383 50.3696 119.383C50.5059 119.383 50.6385 119.428 50.7674 119.512C50.9737 119.684 51.0768 119.913 51.0768 120.202C51.0768 120.33 51.04 120.459 50.9737 120.587C49.7066 122.641 48.1042 124.27 46.1704 125.465C44.2439 126.653 42.1553 127.246 39.9083 127.246ZM34.8987 112.756C38.4239 112.756 40.9913 111.597 42.6047 109.274C43.625 107.669 44.137 105.756 44.137 103.529C44.137 100.44 42.9951 98.8397 40.7187 98.7313C39.2748 98.7875 38.0555 99.5176 37.0646 100.93C36.0701 102.342 35.4218 103.866 35.1197 105.503C34.814 107.132 34.663 108.532 34.663 109.707C34.663 110.726 34.7403 111.741 34.8987 112.756Z" fill="white"/>
<path d="M59.8715 126.476L54.3904 126.444C53.6831 126.444 53.3295 126.099 53.3295 125.401C53.3295 124.952 53.499 124.615 53.8452 124.39C54.2762 124.146 54.6188 123.841 54.8766 123.476C55.1418 123.102 55.3371 122.585 55.466 121.919V106.161C55.466 104.601 55.3334 103.497 55.0682 102.856C54.8103 102.214 54.3978 101.724 53.8305 101.379C53.4953 101.155 53.3295 100.81 53.3295 100.336C53.3295 99.6622 53.6574 99.3252 54.3167 99.3252C57.1236 99.3252 59.9194 98.8438 62.7005 97.881C62.8478 97.8289 62.9952 97.8008 63.1425 97.8008C63.5624 97.8008 63.8571 97.9211 64.0266 98.1538C64.2034 98.3905 64.2918 98.8438 64.2918 99.5178V100.93C65.6547 98.3745 67.9606 97.0947 71.2021 97.0947C72.4287 97.0947 73.3975 97.3755 74.1047 97.9292C75.1435 98.8077 75.6666 99.943 75.6666 101.331C75.6666 101.748 75.5782 102.27 75.4014 102.888C75.2319 103.509 74.8304 104.107 74.1931 104.685C73.5633 105.263 72.7639 105.551 71.7915 105.551C70.5133 105.551 69.6255 104.909 69.1246 103.626C68.8299 102.847 68.5057 102.226 68.1521 101.764C67.7985 101.307 67.3602 101.074 66.8408 101.074C66.1409 101.074 65.5921 101.516 65.1906 102.39C64.7964 103.269 64.5459 104.107 64.4391 104.909C64.3397 105.712 64.2918 106.574 64.2918 107.493V121.919C64.4096 122.585 64.5938 123.102 64.8517 123.476C65.1169 123.841 65.4631 124.146 65.8978 124.39C66.2588 124.615 66.443 124.976 66.443 125.465C66.443 126.119 66.0783 126.444 65.3526 126.444L59.8715 126.476Z" fill="white"/>
<path d="M83.4759 126.476L77.9948 126.444C77.2875 126.444 76.9339 126.099 76.9339 125.401C76.9339 124.952 77.1033 124.615 77.4496 124.39C77.8806 124.146 78.2231 123.841 78.481 123.476C78.7462 123.102 78.9414 122.585 79.0704 121.919V106.161C79.0704 104.601 78.9377 103.497 78.6725 102.856C78.4147 102.214 78.0021 101.724 77.4349 101.379C77.0997 101.155 76.9339 100.81 76.9339 100.336C76.9339 99.6622 77.2617 99.3252 77.9211 99.3252C80.728 99.3252 83.5238 98.8438 86.3048 97.881C86.4522 97.8289 86.5995 97.8008 86.7469 97.8008C87.1668 97.8008 87.4615 97.9211 87.6309 98.1538C87.8077 98.3905 87.8961 98.8438 87.8961 99.5178V100.93C89.2591 98.3745 91.565 97.0947 94.8065 97.0947C96.0331 97.0947 97.0019 97.3755 97.7091 97.9292C98.7479 98.8077 99.2709 99.943 99.2709 101.331C99.2709 101.748 99.1825 102.27 99.0057 102.888C98.8363 103.509 98.4348 104.107 97.7975 104.685C97.1676 105.263 96.3683 105.551 95.3958 105.551C94.1177 105.551 93.2299 104.909 92.729 103.626C92.4343 102.847 92.1101 102.226 91.7565 101.764C91.4029 101.307 90.9645 101.074 90.4452 101.074C89.7453 101.074 89.1964 101.516 88.7949 102.39C88.4008 103.269 88.1503 104.107 88.0435 104.909C87.944 105.712 87.8961 106.574 87.8961 107.493V121.919C88.014 122.585 88.1982 123.102 88.456 123.476C88.7213 123.841 89.0675 124.146 89.5022 124.39C89.8632 124.615 90.0473 124.976 90.0473 125.465C90.0473 126.119 89.6827 126.444 88.957 126.444L83.4759 126.476Z" fill="white"/>
<path d="M112.931 127.246C110.592 127.246 108.444 126.717 106.492 125.658C104.536 124.599 102.915 122.978 101.63 120.796C100.215 118.176 99.5082 115.372 99.5082 112.387C99.5082 111.97 99.5229 111.549 99.5524 111.119C99.8839 106.843 101.32 103.417 103.855 100.85C106.389 98.282 109.62 96.9983 113.55 96.9983C115.819 96.9983 117.727 97.3995 119.281 98.2018C120.843 99.0041 122.059 100.039 122.936 101.299C123.937 102.787 124.438 104.428 124.438 106.225C124.438 107.393 124.166 108.592 123.628 109.82C123.098 111.039 122.162 112.138 120.829 113.109C119.491 114.084 117.779 114.722 115.686 115.019C114.986 115.139 114.261 115.195 113.506 115.195C111.922 115.195 110.179 114.967 108.275 114.505C108.629 115.853 109.152 117.065 109.852 118.132C110.548 119.191 111.45 120.037 112.563 120.667C113.671 121.301 114.986 121.614 116.511 121.614C118.758 121.614 120.865 120.936 122.832 119.576C123.017 119.448 123.204 119.383 123.392 119.383C123.529 119.383 123.661 119.428 123.79 119.512C123.996 119.684 124.1 119.913 124.1 120.202C124.1 120.33 124.063 120.459 123.996 120.587C122.729 122.641 121.127 124.27 119.193 125.465C117.267 126.653 115.178 127.246 112.931 127.246ZM107.921 112.756C111.447 112.756 114.014 111.597 115.627 109.274C116.648 107.669 117.16 105.756 117.16 103.529C117.16 100.44 116.018 98.8397 113.741 98.7313C112.297 98.7875 111.078 99.5176 110.087 100.93C109.093 102.342 108.444 103.866 108.142 105.503C107.837 107.132 107.686 108.532 107.686 109.707C107.686 110.726 107.763 111.741 107.921 112.756Z" fill="white"/>
<path d="M132.997 96.4366C132.061 96.4366 131.207 96.2841 130.433 95.9712C129.667 95.6623 129.052 95.201 128.591 94.5912C128.138 93.9734 127.914 93.2032 127.914 92.2805C127.914 91.3418 128.138 90.5635 128.591 89.9537C129.052 89.3359 129.667 88.8706 130.433 88.5576C131.207 88.2487 132.061 88.0923 132.997 88.0923C134.4 88.0923 135.598 88.4694 136.592 89.2156C137.594 89.9537 138.095 90.9767 138.095 92.2805C138.095 93.5883 137.594 94.6073 136.592 95.3454C135.598 96.0755 134.4 96.4366 132.997 96.4366ZM132.997 126.476L127.516 126.444C126.809 126.444 126.455 126.099 126.455 125.401C126.455 124.952 126.624 124.615 126.971 124.39C127.413 124.145 127.759 123.84 128.017 123.475C128.271 123.102 128.463 122.585 128.591 121.919V106.161C128.591 104.6 128.459 103.497 128.194 102.855C127.936 102.213 127.523 101.724 126.956 101.379C126.621 101.154 126.455 100.809 126.455 100.336C126.455 99.662 126.794 99.325 127.472 99.325C130.26 99.325 133.049 98.8436 135.841 97.8808C135.977 97.8286 136.121 97.8006 136.268 97.8006C136.688 97.8006 136.983 97.9209 137.152 98.1536C137.329 98.3903 137.417 98.8436 137.417 99.5176V121.919C137.535 122.585 137.719 123.102 137.977 123.475C138.242 123.84 138.589 124.145 139.023 124.39C139.384 124.615 139.568 124.976 139.568 125.465C139.568 126.119 139.204 126.444 138.478 126.444L132.997 126.476Z" fill="white"/>
<path d="M172.142 109.274C172.161 107.168 172.176 105.371 172.187 103.882C172.187 101.018 171.148 99.4976 169.078 99.3251V97.8007C172.231 97.8007 174.931 98.6592 177.182 100.368C179.686 102.318 180.939 105.05 180.939 108.568V120.796C180.939 121.526 181.064 122.027 181.322 122.304C181.587 122.585 181.97 122.802 182.471 122.962C182.825 123.122 183.005 123.391 183.016 123.764C183.016 124.141 182.869 124.466 182.574 124.743C182.073 125.205 181.325 125.61 180.335 125.963C179.34 126.308 178.301 126.476 177.211 126.476C176.327 126.476 175.491 126.3 174.706 125.947C173.015 125.188 172.15 123.668 172.113 121.389C172.013 121.594 171.899 121.791 171.774 121.983C169.925 124.98 167.383 126.476 164.142 126.476C162.617 126.476 161.316 126.115 160.237 125.385C159.154 124.659 158.322 123.716 157.732 122.561C157.15 121.397 156.863 120.154 156.863 118.838C156.863 115.372 158.138 112.812 160.694 111.152C162.853 109.752 165.534 109.049 168.739 109.049C169.918 109.049 171.052 109.126 172.142 109.274ZM152.428 108.937V121.919C152.546 122.585 152.73 123.102 152.988 123.475C153.253 123.841 153.599 124.145 154.034 124.39C154.395 124.615 154.579 124.976 154.579 125.465C154.579 126.119 154.215 126.444 153.489 126.444L148.008 126.476L142.527 126.444C141.819 126.444 141.466 126.099 141.466 125.401C141.466 124.952 141.635 124.615 141.982 124.39C142.412 124.145 142.755 123.841 143.013 123.475C143.278 123.102 143.473 122.585 143.602 121.919V106.161C143.602 104.601 143.47 103.497 143.204 102.855C142.947 102.214 142.534 101.724 141.967 101.379C141.632 101.154 141.466 100.809 141.466 100.336C141.466 99.6621 141.794 99.3251 142.453 99.3251C145.26 99.3251 148.056 98.8437 150.837 97.8809C150.984 97.8288 151.131 97.8007 151.279 97.8007C151.699 97.8007 151.993 97.921 152.163 98.1537C152.34 98.3904 152.428 98.8437 152.428 99.5177V103.048C152.907 102.033 153.511 101.054 154.24 100.111C155.301 98.7314 156.602 97.6081 158.145 96.7416C159.696 95.8671 161.49 95.4258 163.523 95.4258C164.82 95.4258 165.866 95.7066 166.661 96.2602C167.928 97.1909 168.562 98.4105 168.562 99.9189C168.562 100.264 168.488 100.721 168.341 101.299C168.201 101.869 167.788 102.438 167.103 103.016C166.426 103.594 165.497 103.882 164.319 103.882C163.766 103.882 163.291 103.762 162.889 103.513C162.495 103.269 162.142 102.952 161.828 102.567C161.512 102.181 161.217 101.788 160.944 101.379C160.62 100.834 160.27 100.364 159.898 99.967C159.523 99.5739 159.077 99.3733 158.557 99.3733C157.445 99.3733 156.425 99.8507 155.493 100.801C154.557 101.756 153.813 102.964 153.253 104.428C152.701 105.896 152.428 107.397 152.428 108.937ZM172.113 117.731C172.113 115.26 172.12 113.037 172.142 111.055C171.807 111.047 171.487 111.039 171.185 111.039C169.936 111.039 168.805 111.304 167.796 111.826C166.794 112.339 166.031 113.121 165.512 114.168C165 115.207 164.746 116.23 164.746 117.233C164.746 118.477 165.059 119.552 165.689 120.459C166.315 121.357 167.081 121.807 167.987 121.807C168.695 121.807 169.317 121.578 169.859 121.117C170.407 120.659 170.89 120.082 171.303 119.384C171.597 118.85 171.866 118.3 172.113 117.731Z" fill="white"/>
</svg>
