<svg width="84" height="84" viewBox="0 0 84 84" fill="none" xmlns="http://www.w3.org/2000/svg">
<g clip-path="url(#clip0_0_183)">
<path d="M1.92773 0H3.4043L3.44531 0.0820312L3.81445 0.246094L4.26562 0.533203L4.75781 0.984375L83.2207 79.4473L83.6719 80.0215L83.918 80.5547L84 80.7598V82.1133L83.918 82.1543L83.7539 82.5234L83.4668 83.0156L83.0156 83.4668L82.4414 83.7949L81.9492 84H80.7598L80.3086 83.7949L79.8574 83.5488L79.5293 83.2617L61.0723 64.8047L60.8672 64.6406L60.6211 64.6816L59.0215 65.2969L57.791 65.748L56.0273 66.3223L53.9766 66.8965L52.418 67.2656L50.3672 67.6758L48.4395 67.9629L46.5527 68.168L44.748 68.291L43.6816 68.332H42.1641L40.1133 68.25L39.7441 68.4141L21.2871 77.6426L20.5078 78.0117L19.7285 78.4219L19.1133 78.668L18.7031 78.75H17.9648L17.4727 78.627L16.8984 78.3398L16.4062 77.8887L16.1191 77.5195L15.832 76.9453L15.75 76.5762L15.709 76.084V60.7031L15.5039 60.6211L14.9297 60.2109L14.1094 59.6367L13.3301 59.0625L12.7969 58.6523L12.1406 58.1191L11.6895 57.75L11.2383 57.3398L10.7871 56.9707L10.459 56.6426L10.1309 56.3555L8.4082 54.6328L8.12109 54.3047L8.03906 54.1406H7.95703L7.58789 53.6895L7.21875 53.2793L6.39844 52.2539L5.82422 51.4746L5.29102 50.7363L4.59375 49.6699L3.97852 48.6445L3.48633 47.7832L2.91211 46.6758L2.37891 45.5273L1.72266 43.8867L1.23047 42.4102L0.943359 41.4668L0.615234 40.1133L0.328125 38.6367L0.123047 37.2012L0.0820312 36.5039L0 36.4629V31.8281L0.0820312 31.377L0.328125 29.5723L0.574219 28.2598L0.902344 26.9062L1.18945 25.8809L1.68164 24.4043L2.17383 23.1328L2.78906 21.7793L3.36328 20.6309L3.89648 19.6875L4.51172 18.6621L5.16797 17.6777L5.66016 16.9805L6.15234 16.3242L6.48047 15.873H6.5625L6.64453 15.709L7.17773 15.0527L7.54688 14.6426L7.91602 14.1914L8.49023 13.5762L9.02344 13.043L9.10547 12.8789L8.81836 12.5508L0.574219 4.30664L0.205078 3.73242L0 3.28125V1.92773H0.0820312L0.123047 1.68164L0.451172 1.06641L0.820312 0.65625L1.23047 0.328125L1.92773 0ZM12.8789 16.6523V16.7344L12.7148 16.8164L12.5508 16.9805V17.0625H12.4688L12.1816 17.3906L11.8535 17.7188L11.4844 18.1699L11.0742 18.6211L10.623 19.1953L10.0488 19.9336L9.88477 20.1797L9.31055 21L8.81836 21.7793L8.20312 22.8457L7.71094 23.7891L7.21875 24.8145L6.68555 26.168L6.19336 27.6445L5.82422 29.0801L5.57812 30.2695L5.41406 31.377L5.29102 32.8535L5.25 33.9609V34.4941L5.33203 36.0117L5.49609 37.4883L5.74219 38.8828L6.15234 40.5234L6.64453 42L7.01367 42.9844L7.50586 44.0918L7.875 44.8711L8.36719 45.7734L8.77734 46.4707L9.26953 47.25L9.88477 48.1523L10.2539 48.6445L10.6641 49.1777L11.1973 49.834L11.6895 50.4082L12.1406 50.9004L12.6328 51.4336L13.6992 52.5L14.0273 52.7871L14.5195 53.2383L14.9707 53.6074L15.3398 53.9355L15.9141 54.3867L16.6523 54.9609L17.2266 55.3711L18.1699 56.0273L19.8516 57.0938L20.3438 57.5449L20.6309 57.9141L20.877 58.4473L20.959 58.8574L21 59.6777V71.8184L21.2051 71.7773L22.1484 71.2852L38.4727 63.123L39.1289 62.918H40.1953L40.8105 62.959H43.1895L44.9941 62.877L46.4707 62.7539L48.1934 62.5488L50.2441 62.2207L52.0078 61.8516L53.8125 61.4004L55.4531 60.9082L56.7246 60.498L56.4785 60.2109L56.2734 60.0059L56.0273 59.7188H55.9453L55.8633 59.5547H55.7812L55.6992 59.3906L13.8633 17.5547H13.7812L13.6992 17.3906L13.043 16.7344H12.9199L12.8789 16.6523Z" fill="#E3EDA5"/>
<path d="M38.9238 0H45.3633V0.0410156L47.8242 0.287109L49.4238 0.492188L50.9824 0.738281L52.459 1.02539L54.0996 1.39453L55.8223 1.8457L57.4219 2.33789L58.6523 2.74805L60.2109 3.32227L61.6875 3.9375L62.5078 4.30664L63.9023 4.96289L65.0918 5.57812L66.0352 6.11133L67.1016 6.72656L68.127 7.38281L69.1113 8.03906L69.8086 8.53125L70.2598 8.85938L71.1211 9.51562L71.7773 10.0488L72.2285 10.418L72.8027 10.9102L73.2539 11.3203L73.582 11.6074L73.8691 11.8945L74.1973 12.1816L75.3047 13.2891L75.5918 13.6172L76.125 14.1914L76.4121 14.5195L76.9043 15.0938L77.3555 15.668L77.9297 16.4062L78.4629 17.1445L78.9141 17.8008L79.3652 18.498L79.8984 19.3594L80.4727 20.3848L80.9648 21.3281L81.5801 22.5996L82.1543 23.9941L82.6875 25.5117L83.1797 27.2344L83.5078 28.7109L83.7539 30.1465L83.918 31.377L84 31.418V36.668L83.918 36.709L83.7539 38.0215L83.4668 39.7031L83.1797 40.9746L82.7695 42.4102L82.2773 43.8867L81.8672 44.9121L81.334 46.1426L80.9648 46.9219L80.5547 47.7012L80.0625 48.6035L79.3652 49.752L78.709 50.7363L78.2168 51.4336L77.8477 51.9258L77.3965 52.5L76.8633 53.1562L76.4941 53.6074L76.002 54.1406L75.7148 54.4688L75.2637 54.9609L73.7051 56.5195L73.377 56.8066L72.8848 57.2578L72.4336 57.627L71.8594 58.1191L71.1621 58.6523L70.793 58.8984L70.2188 59.1035L69.8906 59.1855H69.2344L68.7012 59.0625L68.0449 58.7344L67.5527 58.2832L67.2246 57.832L67.0195 57.3809L66.8965 56.7656L66.9375 56.0684L67.1016 55.4941L67.3477 55.043L67.6758 54.6328L68.127 54.2637L68.6602 53.8125L69.2344 53.3613L69.8496 52.7871L70.1777 52.5L70.834 51.8848L71.4902 51.2285L71.5312 51.1465H71.6133L71.6953 50.9824L71.9824 50.6953L72.2695 50.3672L72.6387 49.957L72.9668 49.5469L73.5 48.8906L73.9102 48.3164L74.4434 47.5781L74.9766 46.7578L75.3457 46.1426L75.8789 45.1992L76.207 44.584L76.7402 43.4355L77.2324 42.2051L77.7246 40.7285L78.0117 39.7031L78.3398 38.1445L78.5449 36.709L78.627 35.8066L78.668 35.0684V33.2227L78.5859 31.9922L78.4219 30.6387L78.1758 29.2852L77.8066 27.8086L77.4785 26.7422L76.9453 25.3066L76.4121 24.1172L75.7148 22.7227L75.1406 21.7383L74.6484 20.959L74.0332 20.0566L73.541 19.4004L73.1309 18.8672L72.7617 18.416L72.3105 17.8828L72.0234 17.5547L71.5723 17.0625L70.998 16.4473L70.3418 15.791L70.0137 15.5039L69.3984 14.9297L68.9473 14.5605L68.373 14.0684L67.6758 13.5352L67.1426 13.125L66.4043 12.5918L65.2969 11.8535L64.4355 11.3203L63.8203 10.9512L62.7949 10.377L61.8516 9.88477L60.7852 9.35156L59.5957 8.81836L57.873 8.12109L56.2324 7.54688L54.6738 7.05469L52.8281 6.5625L50.9414 6.15234L49.0547 5.82422L47.209 5.57812L45.4043 5.41406L43.8047 5.33203L41.7539 5.29102L39.9492 5.33203L38.4727 5.41406L36.3398 5.61914L34.3711 5.90625L32.8125 6.19336L31.0078 6.60352L29.4902 7.01367L27.8906 7.50586L26.4961 7.99805L24.8145 8.6543L23.625 9.1875L22.4355 9.76172L21.6562 10.1309L21.123 10.2949L20.6309 10.3359L20.0977 10.2539L19.5234 10.0488L19.1133 9.80273L18.7031 9.43359L18.375 8.98242L18.1289 8.44922L18.0469 8.12109V7.25977L18.1699 6.76758L18.457 6.19336L18.8262 5.74219L19.3184 5.37305L20.2617 4.88086L21.3691 4.34766L22.1895 3.97852L23.666 3.36328L24.8555 2.91211L26.0039 2.50195L27.8496 1.92773L29.6953 1.43555L31.7051 0.984375L33.4688 0.65625L35.1094 0.410156L36.791 0.205078L38.9238 0Z" fill="#E3EDA5"/>
</g>
<defs>
<clipPath id="clip0_0_183">
<rect width="84" height="84" fill="white"/>
</clipPath>
</defs>
</svg>
