<svg width="84" height="84" viewBox="0 0 84 84" fill="none" xmlns="http://www.w3.org/2000/svg">
<path d="M41.5078 1.64062H42.8203L44.666 1.72266L46.1426 1.8457L47.5371 2.00977L49.3418 2.29688L50.9414 2.625L52.7461 3.07617L53.9766 3.44531L55.4531 3.9375L57.0938 4.55273L58.4062 5.12695L59.3906 5.57812L60.9492 6.35742L61.8926 6.89062L62.877 7.46484L64.1074 8.24414L65.0098 8.85938L65.748 9.39258L66.1992 9.7207L66.8145 10.2129L67.3477 10.623L67.7988 10.9922L68.373 11.4844L68.7832 11.8535L69.1113 12.1406L69.5215 12.5098L69.8906 12.8789L70.2188 13.166L70.957 13.9043V13.9863H71.0391L71.3262 14.3145L71.6953 14.6836L71.9824 15.0117L72.3516 15.4219L72.7207 15.873L73.0898 16.2832L73.541 16.8574L74.0332 17.4727L74.6074 18.252L75.0996 18.9492L75.4688 19.4824L76.084 20.4258L76.6172 21.2871L77.0684 22.0664L77.4375 22.7227L77.9297 23.625L78.2578 24.2812L78.832 25.5117L79.3652 26.7422L80.0215 28.4648L80.5137 29.9414L80.9238 31.3359L81.375 33.1406L81.7441 34.9863L82.0312 36.873L82.1953 38.4316L82.3184 40.2363V43.8047L82.1953 45.6094L81.9902 47.4551L81.7441 49.0137L81.457 50.4902L81.1289 51.9258L80.7188 53.4023L80.2266 54.9609L79.6523 56.5195L79.0781 57.9141L78.3398 59.5547L77.6426 60.9082L77.1914 61.7285L76.6582 62.6309L76.4531 63L75.8789 63.9023L75.4277 64.5996L74.8945 65.3379L74.4844 65.9121L73.9922 66.5684L73.459 67.2246L73.1309 67.6348L72.6797 68.168L72.1875 68.7422L71.7363 69.2344L71.6953 69.3164H71.6133L71.5312 69.4805L70.916 70.0957L70.6289 70.4238L70.2188 70.834L69.8906 71.1211L69.4805 71.5312H69.3984V71.6133L69.0703 71.9004L68.6602 72.2695L68.209 72.6387L67.7168 73.0898L67.1836 73.5L66.6094 73.9512L65.9121 74.4844L65.2148 74.9766L64.6406 75.3867L63.8203 75.9199L62.918 76.4941L61.1953 77.4785L60.0879 78.0527L59.4316 78.3809L58.2012 78.9551L56.9297 79.4883L55.2891 80.1035L53.6484 80.6367L52.1719 81.0469L50.4492 81.457L48.6855 81.7852L47.0039 82.0312L45.4453 82.1953L44.3379 82.2773L43.4766 82.3184H40.3184L38.9648 82.2363L37.2422 82.0723L35.2324 81.7852L33.7148 81.498L31.9922 81.0879L30.7617 80.7598L29.2031 80.2676L28.1367 79.8984L26.0859 79.0781L24.9375 78.5449L23.9941 78.0938L22.9277 77.5605L21.9434 76.9863L21.2051 76.5762L20.1797 75.9199L19.0723 75.1816L18.334 74.6484L17.7598 74.2383L17.1035 73.7051L16.5703 73.2949L16.0371 72.8438L15.4629 72.3516L15.0117 71.9414L14.6836 71.6543L14.1914 71.2031L12.4688 69.4805L12.1816 69.1523L11.7305 68.6602L11.3613 68.209L10.9512 67.7578L10.5 67.1836L10.0078 66.5684L9.39258 65.748L8.4082 64.3535L7.99805 63.6973L7.42383 62.7949L6.80859 61.7285L6.39844 60.9902L5.7832 59.8008L5.29102 58.7754L4.7168 57.4629L4.06055 55.7812L3.4043 53.8535L2.91211 52.0898L2.54297 50.5312L2.25586 49.0957L1.96875 47.209L1.76367 45.2812L1.68164 44.0098L1.64062 42.9844V40.9336L1.72266 39.252L1.8457 37.8574L2.00977 36.4629L2.29688 34.6992L2.58398 33.2637L2.99414 31.582L3.36328 30.3105L3.89648 28.6699L4.38867 27.3574L4.96289 25.9629L5.61914 24.5273L6.15234 23.4609L6.5625 22.6816L7.17773 21.6152L7.66992 20.7949L8.57227 19.4004L9.06445 18.7031L9.59766 17.9648L10.0898 17.3086L10.623 16.6523L10.9512 16.2422L11.4844 15.627L11.9766 15.0527L12.4688 14.5195L12.8379 14.1504L12.8789 14.0684H12.9609L13.043 13.9043L14.1914 12.7559L14.5195 12.4688L14.8887 12.0996L15.3398 11.7305L15.832 11.2793L16.2832 10.9102L16.9805 10.3359L17.5137 9.92578L18.1699 9.43359L18.9082 8.90039L20.0156 8.16211L21.041 7.50586L22.0254 6.93164L22.9688 6.39844L23.9531 5.90625L24.6504 5.53711L25.7578 5.04492L26.7012 4.63477L28.3008 4.01953L29.8594 3.48633L31.2539 3.07617L33.2227 2.58398L34.8633 2.25586L36.75 1.96875L38.1855 1.80469L39.9492 1.68164L41.5078 1.64062ZM41.3438 6.72656L40.1133 6.76758L38.4727 6.89062L36.791 7.0957L35.3555 7.3418L33.6328 7.71094L31.9922 8.16211L30.1055 8.77734L28.4238 9.43359L27.2344 9.9668L26.291 10.418L24.8145 11.1973L23.8301 11.7715L22.8457 12.3867L21.9434 13.002L21.2461 13.4941L20.7539 13.8633L20.1797 14.3145L19.5234 14.8477L18.9902 15.2988L18.5391 15.668V15.75L18.375 15.832L17.6777 16.4883L17.2266 16.9395L17.1445 16.9805V17.0625H17.0625V17.1445H16.9805L16.6934 17.4727L16.2422 17.9238L15.9551 18.252L15.4629 18.7852L15.0938 19.2363L14.7656 19.6055L14.3145 20.1797L13.8223 20.7949L13.4121 21.3691L12.9199 22.0664L12.4277 22.8047L11.8535 23.707L11.2793 24.6914L10.7871 25.5938L10.2539 26.6191L9.63867 27.9727L9.31055 28.752L8.77734 30.1465L8.16211 32.0332L7.75195 33.5508L7.38281 35.1914L7.13672 36.627L6.93164 38.1855L6.80859 39.6621L6.76758 40.2773L6.72656 41.4668V42.5332L6.76758 43.7637L6.89062 45.4453L7.0957 47.127L7.38281 48.8086L7.79297 50.6543L8.28516 52.377L8.77734 53.8535L9.22852 55.043L9.63867 56.0273L10.377 57.627L10.8691 58.5703L11.3613 59.4727L11.8945 60.375L12.5098 61.3184L13.002 62.0566L13.4941 62.7539L14.0273 63.4512L14.4785 64.0254L15.0527 64.7227L15.5859 65.3379L16.0781 65.8711L16.1602 65.9941H16.2422L16.3242 66.1582L17.8828 67.7168L18.2109 68.0039L18.7441 68.4961L19.1953 68.8652L19.6055 69.2344L19.9746 69.5215L20.5488 69.9727L21.3691 70.5879L22.1484 71.1211L22.5586 71.4082L23.1328 71.7773L23.9941 72.3105L25.1426 72.9668L26.332 73.582L27.4395 74.1152L28.6699 74.6484L29.8184 75.0996L31.7871 75.7559L33.5918 76.248L35.0684 76.5762L36.9961 76.9043L38.3086 77.0684L39.9492 77.1914L40.7285 77.2324H43.3535L45.1992 77.1094L47.0039 76.9043L48.5215 76.6582L49.6699 76.4121L51.1875 76.043L52.582 75.6328L54.2637 75.0586L55.6992 74.4844L56.8887 73.9512L58.0781 73.377L58.9805 72.8848L60.0059 72.3105L61.6875 71.2441L63.1641 70.1777L64.3125 69.2754L65.4609 68.291L65.9531 67.8398L66.2812 67.5527V67.4707L66.4453 67.3887L67.5117 66.3223V66.2402H67.5938L67.8809 65.9121L68.25 65.543L68.5781 65.1328L68.9473 64.7227L69.3164 64.2715L69.7676 63.6973L70.1367 63.2461L70.6289 62.5488L70.957 62.0977L71.2441 61.6875L71.8594 60.7441L72.3516 59.9238L72.7617 59.2266L73.3359 58.1602L73.9512 56.9297L74.6074 55.4531L75.1816 53.9355L75.6738 52.459L76.084 51.0645L76.4941 49.3418L76.8223 47.5781L76.9863 46.3887L77.1094 45.2402L77.1914 44.1738L77.2324 43.3125V40.5645L77.1094 38.7598L76.9453 37.2832L76.7402 35.9297L76.4941 34.6582L76.125 33.0996L75.6328 31.377L75.0996 29.8184L74.5664 28.4648L74.0742 27.3574L73.582 26.332L73.0898 25.3477L72.5566 24.4043L72.0234 23.502L71.5723 22.8047L71.0801 22.0664L70.5879 21.3691L70.0137 20.5898L69.1934 19.5645L68.7012 18.9902L68.4141 18.6621L67.6758 17.8418L67.3066 17.4727L67.2656 17.3906H67.1836L67.1016 17.2266L66.7734 16.8984H66.6914V16.8164H66.6094V16.7344L66.2812 16.4473L65.7891 15.9551L65.4609 15.668L65.0508 15.2988L64.5996 14.9297L64.0664 14.4785L63.4102 13.9863L62.877 13.5762L62.4668 13.2891L61.7695 12.7969L60.8262 12.1816L59.9648 11.6484L58.8164 10.9922L57.4629 10.2949L56.1504 9.67969L54.6738 9.06445L53.2793 8.57227L52.0078 8.16211L50.4902 7.75195L49.0547 7.42383L47.4141 7.13672L45.8555 6.93164L44.4199 6.80859L43.7227 6.76758L42.4512 6.72656H41.3438Z" fill="#E3EDA5"/>
<path d="M40.6875 44.502H43.2305L44.7891 44.625L46.2656 44.8301L47.6602 45.1172L48.8906 45.4453L50.2441 45.8965L51.4336 46.3887L52.459 46.8809L53.4023 47.373L54.3457 47.9473L54.8379 48.2754L55.5352 48.7676L56.1914 49.2598L57.2578 50.1621L57.9141 50.7773L58.8164 51.6797L59.1035 52.0078L59.4727 52.418L59.8418 52.8691L60.416 53.6074L60.9082 54.3047L61.3184 54.9199L61.7695 55.6992L62.0566 56.2734L62.1797 56.7656V57.4219L62.0566 57.9141L61.7285 58.5703L61.4824 58.8984L61.0723 59.2266L60.498 59.5137L59.8008 59.6777L59.1855 59.6367L58.6523 59.4727L58.2012 59.2266L57.791 58.8574L57.5449 58.5703L57.2168 58.0371L56.7246 57.2168L55.7402 55.9043L55.248 55.3711L54.9609 55.043L54.0996 54.1816L53.7715 53.8945L53.2793 53.4844L52.582 52.9512L52.0078 52.541L51.3516 52.1309L50.5723 51.6797L49.875 51.3105L48.7266 50.8184L47.8242 50.4902L46.5117 50.1211L45.3223 49.875L44.1328 49.7109L42.9844 49.6289H40.8105L39.457 49.752L38.2266 49.957L36.9961 50.2441L36.2168 50.4902L35.4785 50.7363L34.4941 51.1465L33.7969 51.4746L32.8535 52.0078L32.1152 52.459L31.459 52.9102L30.8027 53.4434L30.3516 53.8125L29.9414 54.1816L29.4082 54.6738L28.957 55.125L28.6699 55.4531L28.3008 55.8633L27.8496 56.4375L27.3164 57.1758L26.8242 57.9551L26.373 58.6934L26.0039 59.0625L25.5527 59.3496L25.0605 59.5547L24.6914 59.6367H23.9531L23.3789 59.4727L22.9277 59.2266L22.5176 58.8574L22.2305 58.5293L21.9434 57.9551L21.8203 57.5039V56.7246L21.9844 56.1504L22.3945 55.3711L22.8867 54.5918L23.3789 53.8945L23.8711 53.2383L24.1582 52.8691L24.6504 52.2949L24.9375 51.9668L25.6758 51.1465H25.7578L25.8398 50.9824L26.0039 50.8184H26.0859V50.7363L26.4141 50.4492L26.7012 50.1621L27.1523 49.793L27.6855 49.3418L28.5059 48.7266L29.0801 48.3164L29.7773 47.8652L30.5977 47.373L31.5 46.8809L32.3613 46.4707L33.5508 45.9785L34.5762 45.6094L35.5195 45.3223L36.5039 45.0762L37.7344 44.8301L39.1699 44.625L40.6875 44.502Z" fill="#E3EDA5"/>
<path d="M53.9766 26.8652H55.207L56.0273 27.0293L56.8477 27.3574L57.4629 27.7266L57.873 28.0547L58.3652 28.5059L58.8164 29.0801L59.1855 29.7363L59.4316 30.3516L59.5957 31.0078L59.6777 31.623V32.1973L59.5547 33.0176L59.3496 33.7148L59.0215 34.4121L58.6934 34.9043L58.3242 35.3555L57.9141 35.7656L57.2988 36.2168L56.6426 36.5449L56.1094 36.75L55.4121 36.9141L55.125 36.9551H53.9766L53.3203 36.832L52.7051 36.627L52.0488 36.2988L51.5566 35.9707L50.9414 35.4375L50.5312 34.9453L50.1621 34.3711L49.834 33.6738L49.6289 32.9766L49.5469 32.5254V31.3359L49.7109 30.5156L49.957 29.8594L50.2031 29.3672L50.5723 28.834L51.0234 28.3008L51.4336 27.9316L51.8438 27.6445L52.5 27.2754L53.1562 27.0293L53.9766 26.8652Z" fill="#E3EDA5"/>
<path d="M28.793 26.8652H30.0234L30.8438 27.0293L31.459 27.2754L32.1562 27.6445L32.7305 28.0957L33.3047 28.6699L33.7148 29.2441L34.084 29.9414L34.3301 30.6797L34.4531 31.418V32.4023L34.3301 33.0996L34.166 33.6328L33.9609 34.125L33.5918 34.7812L33.1406 35.3555L32.8125 35.6836L32.2793 36.0938L31.623 36.4629L31.0488 36.709L30.2285 36.9141L29.9414 36.9551H28.793L27.9727 36.791L27.3164 36.5449L26.7012 36.2168L26.209 35.8477L25.7168 35.3965L25.2656 34.8633L24.8965 34.248L24.5684 33.5098L24.3633 32.6484L24.3223 32.3203V31.541L24.4453 30.7617L24.7324 29.9004L25.1016 29.2031L25.3477 28.834H25.4297L25.5117 28.6699L25.8809 28.2598L26.332 27.8496L26.9883 27.4395L27.6035 27.1523L28.2598 26.9473L28.793 26.8652Z" fill="#E3EDA5"/>
</svg>
