<svg width="95" height="95" viewBox="0 0 95 95" fill="none" xmlns="http://www.w3.org/2000/svg">
<path d="M33.6304 0H61.416V0.0927734L61.6479 0.185547L61.9263 0.41748L62.2046 0.881348L62.251 1.11328V10.2515L62.2046 10.7617L61.9727 11.2256L61.6016 11.5503L61.2305 11.6895L60.8594 11.7358H55.8032L55.8496 15.1221L57.1484 15.4004L58.54 15.7715L60.21 16.2817L61.6479 16.792L63.2715 17.4414L64.5239 17.998L65.9619 18.6938L66.9824 19.2505L68.0493 19.8535L69.0234 20.4565L69.5337 20.7812L70.0903 21.1523L71.1572 21.8945L72.4561 22.8687L73.0127 23.3325L73.5229 23.75L74.1724 24.3066L74.6826 24.7705L74.7754 24.8169V24.9097L74.9609 25.0024L75.4248 25.4663L75.7959 25.791L76.6772 26.6724L76.7236 26.7651L76.9556 26.7188L77.9297 26.1621L78.2544 26.0229L78.811 25.9302L79.4141 25.9766L79.8779 26.1157L80.3882 26.4404L80.8057 26.9043L81.084 27.4609L81.1768 27.832V40.9595L81.0376 41.4697L80.7593 41.98L80.4346 42.3511L79.9243 42.6758L79.3213 42.8613H78.5791L78.0688 42.7222L77.2803 42.3047L76.2598 41.7017L72.6416 39.6143L71.5283 38.9648L70.2295 38.2227L69.1162 37.5732L67.9102 36.8774L66.8896 36.2744L66.4258 35.8569L66.0547 35.2539L65.9155 34.79V34.0479L66.1011 33.4912L66.3794 33.0273L66.6113 32.749L67.0752 32.4243L67.6318 32.0996L67.5391 31.9141L66.8896 31.3574L66.1011 30.708L65.2197 30.0586L63.8281 29.1309L62.854 28.5278L61.6943 27.8784L60.21 27.1362L58.4473 26.394L56.8701 25.8374L55.4785 25.4199L53.9478 25.0488L52.2314 24.7241L50.376 24.4922L48.8916 24.3994H45.9229L44.1138 24.5386L42.4438 24.7705L40.8203 25.0952L39.3359 25.4663L37.5732 26.0229L36.46 26.4404L35.3467 26.9043L34.2334 27.4146L33.2129 27.9248L32.0996 28.5742L31.1719 29.1309L30.1514 29.8267L29.502 30.2905L28.7134 30.8936L27.6929 31.7285L27.0435 32.3315L26.6724 32.6562L25.2808 34.0479L24.9561 34.4189L24.5386 34.8828L24.1211 35.3931L23.7964 35.8105L23.2861 36.46L22.915 36.9702L22.4976 37.5732L21.8945 38.501L21.3379 39.4287L20.874 40.2637L20.271 41.4233L19.7607 42.5366L19.2041 43.9282L18.6011 45.6909L18.23 46.9897L17.8589 48.5669L17.627 49.8657L17.4414 51.1646L17.3022 52.6489L17.2559 53.6694V55.7104L17.3486 57.2876L17.5342 58.9111L17.8125 60.5811L18.1372 62.019L18.6011 63.6426L19.2041 65.4053L19.7607 66.7505L20.3638 68.0493L21.0132 69.3018L21.6626 70.415L22.2192 71.2964L22.7295 72.0386L23.3325 72.8735L23.8428 73.5229L24.4922 74.3115L24.9561 74.8218L25.2808 75.1929L25.9302 75.8887L26.626 76.5845L26.7188 76.6309V76.7236L26.9043 76.8164L27.6001 77.4658L28.1104 77.8833L28.8525 78.4863L29.7803 79.1821L30.6616 79.7852L31.4502 80.2954L32.146 80.7129L33.3057 81.3623L34.0015 81.7334L35.5322 82.4292L36.7847 82.9395L38.6865 83.5889L40.4028 84.0527L42.1655 84.4238L44.1138 84.7021L45.8301 84.8413L46.8042 84.8877H48.1958L49.9585 84.7949L51.6284 84.6094L53.2983 84.3311L54.9683 83.96L56.2671 83.5889L57.937 83.0322L59.2358 82.522L60.4883 81.9653L62.0654 81.1768L62.854 80.7129L63.9209 80.0635L64.6167 79.5996L65.4053 79.043L66.1938 78.4399L66.936 77.8369L67.5854 77.2803L67.7246 77.1411H67.8174V77.0483L68.3276 76.6309L69.5337 75.4248L69.8584 75.0537L70.3223 74.5435L70.6006 74.1724H70.6934L70.7861 73.9868L71.3892 73.2446L72.085 72.3169L72.7808 71.2964L73.291 70.5078L73.9868 69.3018L74.6826 67.9565L75.2393 66.7969L75.7959 65.4053L76.3525 63.8281L76.7236 62.5293L77.0947 61.0449L77.373 59.5605L77.5586 58.2153L77.6978 56.731L77.7441 55.8032V52.0459L77.9297 51.1182L78.208 50.4224L78.6255 49.7266L78.9966 49.2627L79.5532 48.7061L80.249 48.2422L80.9448 47.9175L81.5479 47.7319L82.4292 47.5928H83.3105L83.9136 47.6855L84.7021 47.9175L85.5835 48.3813L86.0474 48.7524L86.5112 49.1699L86.9287 49.6802L87.2998 50.2832L87.5781 50.9326L87.7637 51.6748L87.8564 52.6953L87.9028 54.1797V54.9219L87.8564 56.499L87.7173 58.4937L87.4854 60.3491L87.1606 62.3438L86.7896 64.0601L86.2793 65.9619L85.7227 67.7246L85.0732 69.4873L84.4702 70.9253L83.8208 72.3169L83.0786 73.8013L82.4756 74.8682L81.687 76.167L80.8521 77.4194L80.249 78.3008L79.8315 78.8574L79.2285 79.646L78.7183 80.249L78.3472 80.7129L77.7905 81.3623L77.1411 82.0581L76.7236 82.522L75.1929 84.0527L74.8218 84.3774L74.126 85.0269L73.6157 85.4443L73.0127 85.9546L72.5024 86.3721L71.3892 87.207L70.6006 87.7637L69.0698 88.7842L67.771 89.5728L66.4258 90.3149L65.6372 90.7324L64.5703 91.2427L62.9932 91.9385L61.3232 92.5879L59.6997 93.1445L58.0762 93.6084L56.4062 94.0259L54.5508 94.397L52.6953 94.6753L50.7471 94.9072L49.9121 95H44.5312V94.9536L41.2842 94.5361L39.4751 94.2114L37.6196 93.7939L35.9497 93.3301L34.79 92.959L33.8159 92.6343L32.2388 92.0312L30.6616 91.3354L29.502 90.7788L28.4814 90.2686L27.4146 89.6655L26.7651 89.2944L25.6519 88.5986L24.5386 87.8564L23.75 87.2998L22.7759 86.5576L22.0337 85.9546L21.5698 85.5835L20.9204 85.0269L20.3638 84.5166L19.8999 84.0991L19.5288 83.728L19.1577 83.4033L18.4619 82.7075L18.1372 82.3364L17.7197 81.9189L17.395 81.5479L16.9312 81.0376L16.5137 80.5273L16.0034 79.9243L15.5396 79.3213L14.8438 78.3936L14.2871 77.605L13.4521 76.3525L12.7563 75.2393L12.1069 74.0796L11.6431 73.2446L11.272 72.5024L10.5298 70.9253L9.7876 69.1162L9.23096 67.5854L8.67432 65.7764L8.30322 64.4312L7.88574 62.5293L7.56104 60.6738L7.28271 58.4473L7.18994 57.334L7.14355 56.4526L7.09717 54.3652L7.14355 52.7417L7.28271 50.7935L7.46826 49.2163L7.74658 47.4536L8.07129 45.8301L8.58154 43.7891L9.13818 41.98L9.74121 40.2637L10.2515 39.0112L10.9009 37.5269L11.3184 36.6455L11.7822 35.7642L12.3389 34.7437L13.0811 33.4912L13.7305 32.4707L14.4263 31.4502L14.9365 30.7544L15.3076 30.2441L15.7715 29.6411L16.6064 28.6206L17.1631 27.9712L17.5806 27.5073L17.627 27.4146H17.7197L17.8125 27.229L18.23 26.8115L18.5547 26.4404L19.6216 25.3735L19.9927 25.0488L20.6885 24.3994L21.1987 23.9819L21.709 23.5181L22.1265 23.1934L22.8223 22.6367L23.7036 21.9873L24.5386 21.3843L25.2344 20.9204L26.0229 20.4102L27.3218 19.6216L28.5278 18.9722L29.4092 18.5083L30.4297 17.998L31.5894 17.4878L32.8418 16.9775L34.5117 16.3745L35.6714 16.0034L37.1558 15.5859L38.501 15.2612L39.1504 15.1221L39.1968 11.7358H33.9551L33.584 11.6431L33.1665 11.3647L32.8882 10.9937L32.749 10.5298V1.11328L32.9346 0.603027L33.2129 0.27832L33.6304 0ZM35.3931 2.59766V9.0918H59.6069V2.59766H35.3931ZM41.8408 11.7358V14.6582L43.6035 14.4727L44.7168 14.3799L46.8506 14.2871H48.2886L50.2832 14.3799L52.2778 14.5654L52.6953 14.6118H53.1592V11.7358H41.8408ZM46.1548 16.9312L44.4385 17.0239L42.6294 17.2095L41.0522 17.4414L39.3823 17.7661L37.1558 18.3228L35.5322 18.833L34.187 19.2969L32.6099 19.9463L31.2646 20.5493L29.6875 21.3379L28.6206 21.9409L27.6001 22.5439L26.5796 23.1934L25.6519 23.8428L25.1416 24.2139L24.3994 24.7705L23.6572 25.3735L23.147 25.791L22.4512 26.394L21.8945 26.9043L21.2915 27.4609L19.8999 28.8525L19.5752 29.2236L19.1577 29.6875L18.7402 30.1978L18.1372 30.8936L17.2095 32.0996L16.6064 32.9346L15.8643 34.0479L15.2148 35.0684L14.519 36.2744L13.6841 37.8516L13.1738 38.9185L12.6172 40.2173L12.0605 41.6089L11.5039 43.2788L11.04 44.856L10.5762 46.8042L10.3442 48.0103L10.1587 49.1235L9.97314 50.5615L9.83398 52.0923L9.7876 53.02V56.2207L9.88037 57.7515L10.0659 59.5142L10.2979 61.0449L10.6226 62.7148L11.1328 64.7559L11.6895 66.5649L12.1997 68.0029L12.8027 69.4873L13.2202 70.415L13.8696 71.7603L14.519 73.0127L14.9829 73.8013L15.4932 74.6362L16.0498 75.5176L16.6992 76.4453L17.3022 77.2803L17.8125 77.9297L18.4155 78.6719L18.9258 79.2749L19.3433 79.7388L19.668 80.1099L20.2246 80.7129L21.8018 82.29L22.1729 82.6147L22.6831 83.0786L23.1934 83.4961L23.8428 84.0527L25.4199 85.2588L27.3682 86.5576L28.5278 87.2534L29.6875 87.9028L30.9399 88.5522L32.2388 89.1553L33.6768 89.7583L35.4395 90.4077L36.9238 90.8716L38.8721 91.3818L40.6812 91.7529L42.4438 92.0312L44.1138 92.2168L45.4126 92.3096L46.4331 92.356H48.6133L50.376 92.2632L52.1851 92.0776L54.0405 91.7993L55.896 91.4282L57.7051 90.9644L59.5142 90.4077L61.0449 89.8511L62.2974 89.3408L63.5498 88.7842L65.498 87.8101L66.5649 87.207L67.3999 86.6968L68.2812 86.1401L69.1626 85.5371L69.9976 84.9341L70.8325 84.2847L71.2964 83.9136L71.8066 83.4961L72.4561 82.9395L73.0591 82.3828L73.1982 82.29V82.1973L73.3838 82.1045L75.2393 80.249L75.564 79.8779L76.0742 79.3213L76.9092 78.3008L77.2803 77.8369L77.8833 77.0483L78.4863 76.2134L78.9502 75.5176L79.4604 74.729L80.1562 73.5693L80.8057 72.4097L81.4551 71.1572L82.1509 69.6265L82.7539 68.1421L83.3569 66.4722L83.8208 64.9414L84.2383 63.3179L84.6094 61.6016L84.9341 59.5605L85.1196 57.8442L85.2124 56.3599V52.8809L85.1196 51.9531L84.8877 51.3965L84.563 50.9326L84.2383 50.6543L83.5889 50.3296L83.2642 50.2368H82.522L81.9189 50.376L81.4551 50.6079L80.9912 51.0254L80.7593 51.3037L80.5273 51.7212L80.3882 52.417V56.1743L80.249 58.0298L80.0171 59.7461L79.8315 60.813L79.5532 62.1582L79.0894 63.9209L78.5327 65.6372L78.0225 66.9824L77.4194 68.374L76.7236 69.812L76.167 70.8325L75.564 71.853L74.8218 73.0127L74.2651 73.8013L73.6157 74.6826L73.1982 75.1929L72.8271 75.6567L72.3169 76.2598L71.8994 76.7236V76.8164H71.8066L71.4819 77.1875L71.2036 77.4658V77.5586H71.1108L70.8325 77.8833L70.4614 78.208V78.3008L70.2759 78.3936L69.8584 78.811L69.4873 79.1357L69.0234 79.5532L68.5132 79.9707L67.9565 80.4346L67.2144 80.9912L66.3794 81.5942L65.4053 82.2437L64.6631 82.7075L63.7354 83.2642L61.9727 84.1919L60.5811 84.8413L59.1895 85.3979L58.0298 85.8154L56.731 86.2329L54.5044 86.7896L52.7417 87.1143L50.979 87.3462L49.3091 87.4854L47.9639 87.5317H47.0825L45.5981 87.4854L44.4385 87.3926L42.8613 87.207L41.748 87.0215L40.1245 86.6968L38.8257 86.3721L37.3877 85.9546L35.8105 85.3979L34.2334 84.7485L32.8418 84.0991L31.4966 83.4033L30.2441 82.6611L29.2236 82.0117L28.2959 81.3623L27.4146 80.7129L26.626 80.0635L26.1157 79.646L25.6519 79.2285L25.2808 78.9038L24.8169 78.4863L23.3325 77.002L23.0078 76.6309L22.4512 75.9814L21.9409 75.3784L21.3379 74.5898L20.6421 73.6621L19.7144 72.2705L18.9258 70.9717L18.1372 69.4873L17.4414 68.0493L16.7456 66.3794L16.189 64.8022L15.7715 63.4106L15.354 61.6943L15.0757 60.2563L14.8438 58.6792L14.6582 56.731L14.6118 55.8032V53.4375L14.7046 51.9531L14.8901 50.2832L15.1221 48.7988L15.4932 47.0361L15.8179 45.7837L16.2817 44.2529L16.792 42.8149L17.3486 41.4697L17.9053 40.2637L18.4619 39.1504L19.0649 38.0835L19.668 37.063L20.5029 35.8105L21.106 34.9756L21.5234 34.4189L22.1265 33.6768L22.5439 33.1665L23.147 32.4707L23.4717 32.0996L24.9561 30.6152L25.0488 30.5688V30.4761L25.2344 30.3833L25.5591 30.0586L26.0693 29.6411L26.7651 29.0381L27.3682 28.5742L28.2959 27.8784L29.4556 27.0898L30.3369 26.5332L31.3574 25.9302L32.5635 25.2808L34.0015 24.585L35.4395 23.9819L37.1094 23.3789L38.4546 22.9614L40.1245 22.5439L41.4697 22.2656L43.2324 21.9873L45.0879 21.8018L45.9692 21.7554H49.0308L50.8398 21.8945L52.3706 22.0801L53.9941 22.3584L55.8032 22.7759L57.2876 23.1934L58.9111 23.75L60.21 24.2603L61.1377 24.6777L61.9727 25.0488L62.854 25.5127L63.9673 26.1157L65.2661 26.9043L66.4258 27.6929L67.3071 28.3423L68.1421 28.9917L68.7451 29.502L69.2554 29.9194L69.9512 30.5688L70.3223 30.8936L70.8789 31.4502L71.1572 31.9141L71.2036 32.0996V32.6099L70.9253 33.1665L70.6006 33.4448L69.3945 34.1406L68.9771 34.3726L69.1162 34.5117L71.3428 35.8105L72.5488 36.5063L73.8477 37.2485L75.9351 38.4546L77.0483 39.104L78.1152 39.707L78.5327 39.939V28.8989L77.8833 29.2236L77.1411 29.6411L76.77 29.7803H76.2598L75.8423 29.5947L75.3784 29.1772L74.8682 28.6206L74.126 27.832L73.9404 27.7393V27.6465L73.5693 27.3218L73.0591 26.8115L72.5488 26.394L71.8994 25.791L71.25 25.2808L70.5078 24.6777L69.8584 24.2139L69.1626 23.7036L68.4668 23.2397L67.8174 22.8223L66.8433 22.2192L65.6836 21.5698L64.7559 21.0596L63.689 20.5493L62.4829 19.9927L61.2305 19.4824L59.5605 18.8794L57.7515 18.3228L55.5249 17.7661L53.5303 17.395L51.8604 17.1631L50.376 17.0239L48.5669 16.9312H46.1548Z" fill="#E3EDA5"/>
<path d="M47.1753 31.3574H47.8247L48.2886 31.5894L48.5205 31.8213L48.7524 32.1924L48.7988 32.3779L48.8452 33.1665V51.1646L48.7988 54.9219L48.6133 55.3857L48.1494 55.8032L46.9897 56.4526L46.2939 56.8701L45.3198 57.4268L44.5312 57.8906L43.2324 58.6328L42.1191 59.2822L40.8203 60.0244L39.707 60.6738L38.7329 61.2305L38.3154 61.3696H37.8979L37.4805 61.2305L37.063 60.8594L36.8311 60.3955L36.7847 60.21V59.8853L36.9702 59.375L37.3413 58.9575L38.3618 58.3545L43.186 55.5713L44.2993 54.9219L45.5981 54.1797L46.1084 53.9014L46.1548 32.7026L46.2476 32.1924L46.5259 31.7285L46.9897 31.4038L47.1753 31.3574Z" fill="#E3EDA5"/>
</svg>
